<?xml version="1.0" encoding="UTF-8"?>
<svg version="1.1" xmlns="http://www.w3.org/2000/svg" width="500" height="500">
<path d="M0 0 C165 0 330 0 500 0 C500 165 500 330 500 500 C335 500 170 500 0 500 C0 335 0 170 0 0 Z " fill="#FCF8F1" transform="translate(0,0)"/>
<path d="M0 0 C1.0725 -0.01224609 2.145 -0.02449219 3.25 -0.03710938 C26.51750113 -0.07956832 49.61563167 9.41030638 66.625 25.1875 C67.47449219 25.95707031 68.32398438 26.72664063 69.19921875 27.51953125 C87.14472585 44.53066279 99.06696143 69.34138213 99.828125 94.19140625 C99.97966696 104.88470581 99.75059326 114.8671449 96.625 125.1875 C96.32698486 126.18209229 96.32698486 126.18209229 96.02294922 127.19677734 C87.63488343 154.57265948 69.86369544 175.82881073 44.58642578 189.33496094 C37.54804466 192.920252 30.23671605 195.16153679 22.625 197.1875 C21.3565625 197.55681641 21.3565625 197.55681641 20.0625 197.93359375 C11.50577782 200.08762971 2.37924046 199.34928268 -6.375 199.1875 C-6.375 196.5475 -6.375 193.9075 -6.375 191.1875 C-4.9209375 191.14882813 -4.9209375 191.14882813 -3.4375 191.109375 C19.30269568 190.25006543 41.03678371 182.8822759 58.625 168.1875 C59.62466797 167.40632813 59.62466797 167.40632813 60.64453125 166.609375 C77.32810416 153.05191536 87.27722463 130.24774244 89.625 109.1875 C91.52482834 85.00433076 85.20968346 62.11271751 70.09375 43.0625 C55.2581087 25.78555064 34.99750742 11.9794006 11.625 10.1875 C-5.71923957 9.46325306 -21.29447086 10.12274646 -37.375 17.1875 C-38.25027344 17.5690625 -39.12554687 17.950625 -40.02734375 18.34375 C-46.74239788 21.48380691 -52.57756985 25.59177806 -58.375 30.1875 C-59.29539063 30.91710937 -60.21578125 31.64671875 -61.1640625 32.3984375 C-77.80217706 46.50568393 -87.9870782 67.65114869 -90.375 89.1875 C-91.87701521 115.38003298 -86.04531903 139.33145136 -68.52734375 159.5234375 C-63.39814476 165.34764445 -63.39814476 165.34764445 -57.375 170.1875 C-57.37135437 169.18684509 -57.36770874 168.18619019 -57.36395264 167.1552124 C-57.32686031 157.68156276 -57.26893352 148.2082339 -57.19109726 138.73482895 C-57.15174599 133.86552417 -57.11949731 128.9963969 -57.10400391 124.12695312 C-57.08875549 119.41938356 -57.05416653 114.7123024 -57.00669098 110.00495148 C-56.99196105 108.21745319 -56.98396385 106.42988513 -56.98311615 104.64232635 C-56.96558847 86.19870195 -52.71588675 72.29182794 -39.87109375 58.515625 C-26.86570473 46.385403 -11.36795291 43.37102201 5.82421875 43.8125 C17.20758511 44.44856916 26.82609055 49.04563565 35.625 56.1875 C36.19605469 56.60902344 36.76710938 57.03054687 37.35546875 57.46484375 C46.30456271 64.29744248 53.40032218 76.40000931 55.3828125 87.4453125 C56.23919206 97.14173918 56.89323148 107.89346674 53.625 117.1875 C53.295 118.13882813 52.965 119.09015625 52.625 120.0703125 C47.770648 132.81298651 38.17265511 145.20477804 25.625 151.1875 C16.05832528 155.22849912 7.1299228 157.61520768 -3.375 156.1875 C-4.035 155.5275 -4.695 154.8675 -5.375 154.1875 C-5.125 150.625 -5.125 150.625 -4.375 147.1875 C-1.9647421 145.98237105 0.22576707 145.92037289 2.88037109 145.69506836 C16.27819231 144.46207375 26.51100247 139.27625662 35.625 129.1875 C42.19885215 120.22315616 45.14426166 111.87256087 45 100.8125 C45.01740234 99.48992187 45.01740234 99.48992187 45.03515625 98.140625 C44.97969257 85.53188088 40.44503776 76.75369644 32.1875 67.4375 C31.341875 66.695 30.49625 65.9525 29.625 65.1875 C29.11066406 64.70796875 28.59632813 64.2284375 28.06640625 63.734375 C18.90606265 55.93330819 6.95621493 53.30726156 -4.80859375 53.7734375 C-17.13636067 55.20470069 -28.95672586 61.14644361 -36.8125 70.890625 C-43.87179408 81.2677873 -46.66186177 91.3490109 -46.69384766 103.74633789 C-46.70891609 105.10893234 -46.70891609 105.10893234 -46.72428894 106.49905396 C-46.75491381 109.46941558 -46.77209805 112.43968795 -46.7890625 115.41015625 C-46.80779083 117.4823838 -46.82736546 119.55460386 -46.8477478 121.6268158 C-46.89889914 127.05674811 -46.93861553 132.48670511 -46.97589111 137.91674805 C-47.01603772 143.46734639 -47.06708128 149.01784358 -47.1171875 154.56835938 C-47.21374536 165.44133502 -47.29821417 176.314368 -47.375 187.1875 C-64.70180712 181.77165147 -80.02039027 163.82874811 -88.375 148.1875 C-101.38511223 123.3272273 -104.5397931 95.85302872 -96.34375 68.78125 C-91.81533747 56.17512865 -85.42679195 44.10511552 -76.375 34.1875 C-75.94203613 33.7121582 -75.50907227 33.23681641 -75.06298828 32.74707031 C-54.93986512 10.93593021 -29.52351201 0.01761546 0 0 Z " fill="#064EAE" transform="translate(250.375,98.8125)"/>
<path d="M0 0 C5.65618541 3.38522166 9.85864031 7.58922545 11.70703125 14.05859375 C12.38107005 20.01260315 11.03423457 24.20046865 7.70703125 29.05859375 C4.30213307 32.66378005 0.34176901 35.72381684 -4.66015625 36.359375 C-9.96159652 36.38414809 -13.82112973 36.2092076 -18.29296875 33.05859375 C-23.31247194 28.06271175 -25.43301314 24.46199943 -25.60546875 17.24609375 C-25.54826081 11.97025063 -24.98580493 9.04296963 -21.29296875 5.05859375 C-15.28330888 -0.68431881 -8.08682149 -3.32014306 0 0 Z " fill="#EE846E" transform="translate(255.29296875,182.94140625)"/>
<path d="M0 0 C4.516875 -0.1546875 4.516875 -0.1546875 9.125 -0.3125 C10.06230957 -0.35802002 10.99961914 -0.40354004 11.96533203 -0.45043945 C16.26555928 -0.52142297 19.14069839 -0.3837988 22.5546875 2.39453125 C25.94888642 6.01103393 26.30094415 7.99528871 26.2109375 12.97265625 C25.75434937 17.36097554 23.57980966 19.4892153 20.375 22.3125 C15.90474478 24.54762761 12.95385712 24.30023376 8 24 C8 26.97 8 29.94 8 33 C5.36 33 2.72 33 0 33 C0 22.11 0 11.22 0 0 Z " fill="#064EAE" transform="translate(152,310)"/>
<path d="M0 0 C3.91801564 2.05467062 6.37244194 4.15583319 7.96484375 8.27734375 C8.5055229 13.14345612 8.5072062 15.25072911 6.21484375 19.58984375 C2.49084014 24.03795917 -0.41956478 26.02584457 -6.28515625 26.58984375 C-11.76764069 26.13297005 -15.19481632 24.29578109 -18.97265625 20.15234375 C-20.57415096 15.81888746 -20.82224421 11.8322509 -20.03515625 7.27734375 C-16.05288764 -0.45015367 -7.9553731 -2.82484457 0 0 Z " fill="#0B51AF" transform="translate(224.03515625,317.72265625)"/>
<path d="M0 0 C3.8026029 2.0050088 5.61790841 3.42686262 8 7 C8.22705078 9.0847168 8.22705078 9.0847168 8.1953125 11.44921875 C8.18886719 12.29677734 8.18242187 13.14433594 8.17578125 14.01757812 C8.15902344 14.89865234 8.14226562 15.77972656 8.125 16.6875 C8.11597656 17.58017578 8.10695313 18.47285156 8.09765625 19.39257812 C8.07409748 21.59532314 8.04120329 23.79752588 8 26 C6.02 26 4.04 26 2 26 C1.67 25.34 1.34 24.68 1 24 C0.01 24.66 -0.98 25.32 -2 26 C-6.85256126 26.63713018 -11.43258055 26.947742 -15.6875 24.375 C-17.43054644 21.22091596 -17.65292967 19.55483933 -17 16 C-15.3125 13.125 -15.3125 13.125 -12 11 C-7.63505737 10.5825297 -3.3705969 10.71203974 1 11 C0.34 9.68 -0.32 8.36 -1 7 C-2.98 7 -4.96 7 -7 7 C-7.33 7.66 -7.66 8.32 -8 9 C-10.64 9 -13.28 9 -16 9 C-13.50765219 0.84322533 -7.9946614 -1.42158592 0 0 Z " fill="#ED8771" transform="translate(253,317)"/>
<path d="M0 0 C3.63467079 1.62400184 4.77408696 2.66113044 7 6 C7.22705078 8.17651367 7.22705078 8.17651367 7.1953125 10.66796875 C7.18886719 11.56064453 7.18242187 12.45332031 7.17578125 13.37304688 C7.15902344 14.30181641 7.14226562 15.23058594 7.125 16.1875 C7.11597656 17.12787109 7.10695313 18.06824219 7.09765625 19.03710938 C7.07409056 21.35832968 7.04119116 23.67903644 7 26 C3.95613276 26.08226668 1.92824652 25.97608217 -1 25 C-1.66 25.33 -2.32 25.66 -3 26 C-8.08825218 26.63040293 -11.80968502 26.77020381 -16.1875 23.9375 C-18 21 -18 21 -18.0625 17.375 C-16.87334825 13.59769446 -16.37982167 12.86646868 -13 11 C-9.765625 10.70703125 -9.765625 10.70703125 -6.25 10.8125 C-4.49429687 10.85310547 -4.49429687 10.85310547 -2.703125 10.89453125 C-1.81109375 10.92933594 -0.9190625 10.96414063 0 11 C-0.66 9.68 -1.32 8.36 -2 7 C-3.98 7 -5.96 7 -8 7 C-8.33 7.66 -8.66 8.32 -9 9 C-11.31 9 -13.62 9 -16 9 C-15.79803569 5.36464239 -15.21677989 4.2005214 -12.5 1.6875 C-8.1260764 -0.42135602 -4.77202474 -0.73957579 0 0 Z " fill="#ED8671" transform="translate(338,317)"/>
<path d="M0 0 C2.98574762 1.53100222 3.73017273 2.2515091 5.6875 5.1875 C5.6875 6.5075 5.6875 7.8275 5.6875 9.1875 C2.4375 9.4375 2.4375 9.4375 -1.3125 9.1875 C-2.64583333 7.85416667 -3.97916667 6.52083333 -5.3125 5.1875 C-9.15467815 5.27977566 -9.15467815 5.27977566 -12.3125 7.1875 C-12.38455511 8.87358966 -12.39636068 10.56250659 -12.375 12.25 C-12.36146484 13.62865234 -12.36146484 13.62865234 -12.34765625 15.03515625 C-12.33605469 15.74542969 -12.32445312 16.45570313 -12.3125 17.1875 C-8.30034919 17.39342535 -8.30034919 17.39342535 -4.3125 17.1875 C-3.29230427 16.2081121 -2.29100195 15.20854551 -1.3125 14.1875 C2.375 14 2.375 14 5.6875 14.1875 C5.47493957 17.90730755 4.71148225 19.16176295 2.125 21.9375 C-1.4556747 24.64442155 -4.85098795 25.48090698 -9.3125 25.1875 C-14.54242948 23.61852116 -17.28916921 21.72249619 -20.3125 17.1875 C-21.92210241 13.96829518 -21.77408126 10.67861461 -21.3125 7.1875 C-16.94947071 -1.70636739 -8.85004127 -4.16095973 0 0 Z " fill="#ED8772" transform="translate(287.3125,318.8125)"/>
<path d="M0 0 C1.98 0 3.96 0 6 0 C6 2.31 6 4.62 6 7 C8.31 7 10.62 7 13 7 C13 8.98 13 10.96 13 13 C10.69 13 8.38 13 6 13 C6.33 16.63 6.66 20.26 7 24 C8.98 24.66 10.96 25.32 13 26 C13 27.98 13 29.96 13 32 C5.00348432 32.6271777 5.00348432 32.6271777 1 30.125 C-2.37976738 26.53399715 -2.11003565 24.22363651 -2.0625 19.375 C-2.05347656 18.18648438 -2.04445313 16.99796875 -2.03515625 15.7734375 C-2.02355469 14.85820312 -2.01195312 13.94296875 -2 13 C-3.65 13 -5.3 13 -7 13 C-7 11.02 -7 9.04 -7 7 C-5.35 6.67 -3.7 6.34 -2 6 C-1.34 4.02 -0.68 2.04 0 0 Z " fill="#ED8974" transform="translate(303,311)"/>
<path d="M0 0 C6 0 6 0 8 1 C8.66 0.67 9.32 0.34 10 0 C12.3329866 -0.04022391 14.66706666 -0.04320247 17 0 C17 1.98 17 3.96 17 6 C15.865625 6.309375 14.73125 6.61875 13.5625 6.9375 C10.21224901 7.62924531 10.21224901 7.62924531 9 9 C8.76321284 11.69235776 8.57801975 14.36498156 8.4375 17.0625 C8.39431641 17.82111328 8.35113281 18.57972656 8.30664062 19.36132812 C8.20026367 21.24065438 8.09960066 23.12030244 8 25 C5.36 25 2.72 25 0 25 C0 16.75 0 8.5 0 0 Z " fill="#0F54B0" transform="translate(183,318)"/>
<path d="M0 0 C2.8520847 1.97452017 3.81895125 3.09475625 4.5 6.5 C3.81895125 9.90524375 2.8520847 11.02547983 0 13 C-3.5625 13.5 -3.5625 13.5 -7 13 C-9.66266871 10.76679398 -9.95347082 9.3799883 -10.375 5.9375 C-10 3 -10 3 -8.9375 1.125 C-5.84902396 -0.66830867 -3.48856031 -0.42841969 0 0 Z " fill="#F4F1EC" transform="translate(221,324)"/>
<path d="M0 0 C1.258125 -0.04125 2.51625 -0.0825 3.8125 -0.125 C4.52019531 -0.14820313 5.22789062 -0.17140625 5.95703125 -0.1953125 C8 0 8 0 11 2 C11.375 5.5 11.375 5.5 11 9 C7.91111478 11.05925681 7.29064073 11.2390374 3.8125 11.125 C1.9253125 11.063125 1.9253125 11.063125 0 11 C0 7.37 0 3.74 0 0 Z " fill="#E1E1E1" transform="translate(159,316)"/>
<path d="M0 0 C1.485 0.99 1.485 0.99 3 2 C5.60713564 2.3174994 5.60713564 2.3174994 8.4375 2.25 C9.38496094 2.25515625 10.33242187 2.2603125 11.30859375 2.265625 C14.02552453 1.99748089 15.67465583 1.38531142 18 0 C18 0.99 18 1.98 18 3 C19.65 3 21.3 3 23 3 C22.67 3.66 22.34 4.32 22 5 C18.91015625 5.66796875 18.91015625 5.66796875 15.0625 6.1875 C13.79535156 6.36667969 12.52820313 6.54585938 11.22265625 6.73046875 C8 7 8 7 6 6 C6 5.34 6 4.68 6 4 C4.35 4 2.7 4 1 4 C0.67 2.68 0.34 1.36 0 0 Z " fill="#E7DDD6" transform="translate(237,340)"/>
<path d="M0 0 C1.08667969 0.29197266 1.08667969 0.29197266 2.1953125 0.58984375 C2.74960937 0.74582031 3.30390625 0.90179688 3.875 1.0625 C2.8125 2.5625 2.8125 2.5625 0.875 4.0625 C-2.625 4.1875 -2.625 4.1875 -6.125 4.0625 C-7.115 4.3925 -8.105 4.7225 -9.125 5.0625 C-10.79121616 5.10124921 -12.45894172 5.1075286 -14.125 5.0625 C-14.125 4.0725 -14.125 3.0825 -14.125 2.0625 C-14.785 1.7325 -15.445 1.4025 -16.125 1.0625 C-15.07699219 0.97162109 -15.07699219 0.97162109 -14.0078125 0.87890625 C-13.09773438 0.79511719 -12.18765625 0.71132813 -11.25 0.625 C-10.34507812 0.54378906 -9.44015625 0.46257812 -8.5078125 0.37890625 C-1.84485447 -0.50584719 -1.84485447 -0.50584719 0 0 Z " fill="#E8DED7" transform="translate(341.125,341.9375)"/>
<path d="M0 0 C2.875 -0.125 2.875 -0.125 6 0 C8 2 8 2 8 5 C7.09636719 5.06058594 6.19273437 5.12117188 5.26171875 5.18359375 C4.08222656 5.26738281 2.90273437 5.35117187 1.6875 5.4375 C-0.07013672 5.55931641 -0.07013672 5.55931641 -1.86328125 5.68359375 C-5.02590958 5.8867371 -5.02590958 5.8867371 -8 7 C-8 5.68 -8 4.36 -8 3 C-5.69 3 -3.38 3 -1 3 C-0.67 2.01 -0.34 1.02 0 0 Z " fill="#E8E0D9" transform="translate(246,323)"/>
<path d="M0 0 C2.875 -0.125 2.875 -0.125 6 0 C8 2 8 2 8 5 C7.08476562 5.06058594 6.16953125 5.12117188 5.2265625 5.18359375 C4.03804688 5.26738281 2.84953125 5.35117187 1.625 5.4375 C-0.15003906 5.55931641 -0.15003906 5.55931641 -1.9609375 5.68359375 C-4.91518901 5.81084936 -4.91518901 5.81084936 -7 7 C-7 5.68 -7 4.36 -7 3 C-5.02 3 -3.04 3 -1 3 C-0.67 2.01 -0.34 1.02 0 0 Z " fill="#EAE4DE" transform="translate(330,323)"/>
<path d="M0 0 C0 3 0 3 -2.25 5.625 C-4.86964168 7.88741782 -5.75074868 8.49230448 -9 9 C-11.39461365 9.91223377 -13.70828922 10.85414461 -16 12 C-16 10.02 -16 8.04 -16 6 C-15.12988281 5.96132813 -15.12988281 5.96132813 -14.2421875 5.921875 C-8.23859586 5.48597066 -4.36043457 4.36043457 0 0 Z " fill="#DBDBDB" transform="translate(176,328)"/>
<path d="M0 0 C0.66 0.99 1.32 1.98 2 3 C0.906875 3.103125 -0.18625 3.20625 -1.3125 3.3125 C-5.4259383 4.06864184 -5.4259383 4.06864184 -8 7 C-8.66 7.99 -9.32 8.98 -10 10 C-10.48428405 2.61466822 -10.48428405 2.61466822 -8.375 -0.0625 C-5.16733041 -1.32868536 -3.2708979 -0.99549067 0 0 Z " fill="#EBE6DF" transform="translate(284,324)"/>
<path d="M0 0 C0.8125 1.6875 0.8125 1.6875 1 4 C-2.14484179 8.00252591 -5.01463167 9.98257789 -10 11 C-13.375 10.625 -13.375 10.625 -16 10 C-16 9.34 -16 8.68 -16 8 C-16.66 7.67 -17.32 7.34 -18 7 C-17.41992188 7.03480469 -16.83984375 7.06960938 -16.2421875 7.10546875 C-11.02869013 7.2861345 -7.4795602 6.98637346 -3 4 C-1.14684743 1.95053601 -1.14684743 1.95053601 0 0 Z " fill="#E7DED7" transform="translate(292,336)"/>
<path d="M0 0 C3.3 0 6.6 0 10 0 C8 4 8 4 7 5 C5.00041636 5.04080783 2.99954746 5.04254356 1 5 C0.67 3.35 0.34 1.7 0 0 Z " fill="#E8E1DA" transform="translate(328,333)"/>
<path d="M0 0 C0 3.61186134 -0.52269616 4.44011936 -3 7 C-6.03565486 8.66238242 -7.9854416 9.2337463 -11.390625 8.44921875 C-13.63119288 7.7058857 -15.81875711 6.90158039 -18 6 C-15 5 -15 5 -11.6875 5.125 C-6.74659372 4.95751165 -3.48994402 3.48994402 0 0 Z " fill="#DCDCDA" transform="translate(229,338)"/>
<path d="M0 0 C2.97 0 5.94 0 9 0 C8 4 8 4 7 5 C5.00041636 5.04080783 2.99954746 5.04254356 1 5 C0.67 3.35 0.34 1.7 0 0 Z " fill="#E8E2DB" transform="translate(244,333)"/>
<path d="M0 0 C2.31 0 4.62 0 7 0 C6.195625 0.886875 5.39125 1.77375 4.5625 2.6875 C2.2960841 5.38287032 1.31582634 7.42063478 1 11 C0.67 11 0.34 11 0 11 C0 7.37 0 3.74 0 0 Z " fill="#EAE6E0" transform="translate(309,324)"/>
<path d="M0 0 C3.94747752 -0.51171005 6.1196436 -0.60947751 9.4375 1.6875 C11.25953249 4.38410809 11.35430394 5.81126451 11 9 C10.01 9.495 10.01 9.495 9 10 C9 7.69 9 5.38 9 3 C7.68 3 6.36 3 5 3 C5 2.34 5 1.68 5 1 C2.69 1.66 0.38 2.32 -2 3 C-1.34 2.01 -0.68 1.02 0 0 Z " fill="#CCD1D6" transform="translate(214,324)"/>
<path d="M0 0 C0.33 0 0.66 0 1 0 C1.125 3.375 1.125 3.375 1 7 C-1.95183101 9.95183101 -4.95511947 10.08663988 -9 11 C-8.4375 9.0625 -8.4375 9.0625 -7 7 C-3.375 6.25 -3.375 6.25 0 6 C0 4.02 0 2.04 0 0 Z " fill="#C0C9D5" transform="translate(200,318)"/>
<path d="M0 0 C0 0.66 0 1.32 0 2 C-1.65071396 3.02611949 -3.31970006 4.02308143 -5 5 C-6.75149165 6.58245275 -6.75149165 6.58245275 -8 8 C-8 6.02 -8 4.04 -8 2 C-4.91190305 0.23537317 -3.76687864 0 0 0 Z " fill="#E6E4E0" transform="translate(219,325)"/>
<path d="M0 0 C0.99 0.33 1.98 0.66 3 1 C2.0409375 1.9590625 2.0409375 1.9590625 1.0625 2.9375 C-1.61912635 6.91930882 -1.79498004 10.294792 -2 15 C-2.33 15 -2.66 15 -3 15 C-3.08078641 12.87561661 -3.13909141 10.7503677 -3.1875 8.625 C-3.22230469 7.44164062 -3.25710937 6.25828125 -3.29296875 5.0390625 C-3.19628906 4.03617187 -3.09960938 3.03328125 -3 2 C-2.01 1.34 -1.02 0.68 0 0 Z " fill="#EEEAE4" transform="translate(194,327)"/>
<path d="M0 0 C-0.886875 0.2475 -1.77375 0.495 -2.6875 0.75 C-6.10427135 2.03934768 -8.2797748 3.59980129 -11 6 C-11 4.02 -11 2.04 -11 0 C-9.54263913 -0.19491452 -8.08405407 -0.38069358 -6.625 -0.5625 C-5.81289062 -0.66691406 -5.00078125 -0.77132813 -4.1640625 -0.87890625 C-2 -1 -2 -1 0 0 Z " fill="#E6E3DD" transform="translate(171,334)"/>
<path d="M0 0 C2.875 -0.125 2.875 -0.125 6 0 C8 2 8 2 8 5 C7.01 5 6.02 5 5 5 C4.67 4.34 4.34 3.68 4 3 C1.47266765 2.34444881 1.47266765 2.34444881 -1 2 C-0.67 1.34 -0.34 0.68 0 0 Z " fill="#E4DBD4" transform="translate(330,323)"/>
<path d="M0 0 C0 0.33 0 0.66 0 1 C-2.31 1 -4.62 1 -7 1 C-7.33 1.99 -7.66 2.98 -8 4 C-8.66 4 -9.32 4 -10 4 C-7.53453745 -1.4592385 -5.69047474 -1.11335375 0 0 Z " fill="#E3CDC3" transform="translate(284,324)"/>
<path d="M0 0 C2.64 0 5.28 0 8 0 C7.01 1.485 7.01 1.485 6 3 C4.68 3 3.36 3 2 3 C2 2.34 2 1.68 2 1 C1.34 0.67 0.68 0.34 0 0 Z " fill="#E6E3DC" transform="translate(307,343)"/>
<path d="M0 0 C2.31 0 4.62 0 7 0 C6.01 1.485 6.01 1.485 5 3 C3.35 2.67 1.7 2.34 0 2 C0 1.34 0 0.68 0 0 Z " fill="#E9E5DF" transform="translate(184,343)"/>
</svg>
