<?xml version="1.0" encoding="UTF-8"?>
<svg version="1.1" xmlns="http://www.w3.org/2000/svg" width="500" height="500">
<path d="M0 0 C2.03988389 1.3541972 2.03988389 1.3541972 4.953125 2.19921875 C6.09133166 3.30293429 7.22191498 4.41542056 8.31640625 5.5625 C10.36043672 7.60653047 12.52874829 9.48203217 14.703125 11.38671875 C22.79663882 18.66124606 30.1169942 26.33730496 34.953125 36.19921875 C34.953125 36.85921875 34.953125 37.51921875 34.953125 38.19921875 C35.613125 38.19921875 36.273125 38.19921875 36.953125 38.19921875 C49.15712988 63.05288037 53.00481588 93.02586358 44.55859375 119.828125 C40.13590907 132.37060397 33.52044164 144.00761531 24.953125 154.19921875 C24.293125 154.19921875 23.633125 154.19921875 22.953125 154.19921875 C22.953125 154.85921875 22.953125 155.51921875 22.953125 156.19921875 C22.293125 156.19921875 21.633125 156.19921875 20.953125 156.19921875 C20.953125 156.85921875 20.953125 157.51921875 20.953125 158.19921875 C20.293125 158.19921875 19.633125 158.19921875 18.953125 158.19921875 C18.953125 158.85921875 18.953125 159.51921875 18.953125 160.19921875 C18.293125 160.19921875 17.633125 160.19921875 16.953125 160.19921875 C16.953125 160.85921875 16.953125 161.51921875 16.953125 162.19921875 C16.293125 162.19921875 15.633125 162.19921875 14.953125 162.19921875 C14.953125 162.85921875 14.953125 163.51921875 14.953125 164.19921875 C14.293125 164.19921875 13.633125 164.19921875 12.953125 164.19921875 C12.953125 164.85921875 12.953125 165.51921875 12.953125 166.19921875 C-1.6719827 178.49344991 -19.95811939 187.92172047 -39.25390625 189.0234375 C-41.06913616 189.0099001 -41.06913616 189.0099001 -42.046875 190.19921875 C-54.77249952 191.05023252 -54.77249952 191.05023252 -60.046875 188.19921875 C-61.78082518 184.96251175 -60.89126641 181.65354725 -60.046875 178.19921875 C-57.60471209 176.97813729 -55.78655028 176.96345491 -53.05859375 176.8046875 C-30.96468952 175.36148224 -13.64908707 170.30827866 3.953125 156.19921875 C4.73300781 155.58433594 5.51289063 154.96945312 6.31640625 154.3359375 C24.23067878 139.39190705 32.98761197 118.3130577 35.765625 95.63671875 C37.34809726 71.00949413 30.17707889 46.95195004 13.953125 28.19921875 C11.10955217 25.39369029 8.12247344 22.78052687 5.078125 20.1953125 C4.376875 19.53660156 3.675625 18.87789062 2.953125 18.19921875 C2.953125 17.53921875 2.953125 16.87921875 2.953125 16.19921875 C2.39625 16.11671875 1.839375 16.03421875 1.265625 15.94921875 C-1.046875 15.19921875 -1.046875 15.19921875 -3.125 13.4375 C-6.87867679 10.56202299 -10.84127418 8.64008724 -15.109375 6.63671875 C-15.95411377 6.23904297 -16.79885254 5.84136719 -17.66918945 5.43164062 C-23.99447288 2.52835063 -30.16168525 0.36123027 -37.046875 -0.80078125 C-38.305 -1.02765625 -39.563125 -1.25453125 -40.859375 -1.48828125 C-64.53792214 -3.7781819 -88.02511725 1.6491354 -106.9921875 16.484375 C-114.42140479 22.08512331 -114.42140479 22.08512331 -120.046875 29.19921875 C-120.706875 29.19921875 -121.366875 29.19921875 -122.046875 29.19921875 C-122.31757813 29.7715625 -122.58828125 30.34390625 -122.8671875 30.93359375 C-124.07091873 33.24539544 -125.43614515 35.30915191 -126.921875 37.44921875 C-140.40311438 57.58947225 -144.63798385 81.56629781 -140.046875 105.19921875 C-138.04996919 115.21511282 -134.80913274 123.27138229 -129.75390625 132.0546875 C-128.39406918 134.55965053 -127.50796076 136.4258223 -127.046875 139.19921875 C-126.386875 139.19921875 -125.726875 139.19921875 -125.046875 139.19921875 C-123.7578125 140.66015625 -123.7578125 140.66015625 -122.421875 142.57421875 C-121.97585937 143.20070313 -121.52984375 143.8271875 -121.0703125 144.47265625 C-120.046875 146.19921875 -120.046875 146.19921875 -120.046875 148.19921875 C-119.386875 148.19921875 -118.726875 148.19921875 -118.046875 148.19921875 C-118.046875 148.85921875 -118.046875 149.51921875 -118.046875 150.19921875 C-117.428125 150.48796875 -116.809375 150.77671875 -116.171875 151.07421875 C-114.046875 152.19921875 -114.046875 152.19921875 -112.046875 154.19921875 C-112.03656754 153.2868898 -112.02626007 152.37456085 -112.01564026 151.43458557 C-111.91784239 142.85531871 -111.81535372 134.27612368 -111.70753574 125.69697666 C-111.65226668 121.28588475 -111.59884046 116.87478626 -111.54956055 112.46362305 C-111.50197555 108.21014888 -111.44963514 103.95675786 -111.39393425 99.70338249 C-111.37348402 98.07702632 -111.35477544 96.45064733 -111.33780098 94.82425117 C-111.31381573 92.55405512 -111.28375365 90.28401762 -111.25219727 88.01391602 C-111.23665298 86.71929947 -111.2211087 85.42468292 -111.20509338 84.09083557 C-111.046875 81.19921875 -111.046875 81.19921875 -110.046875 80.19921875 C-109.7460766 78.39145016 -109.48188334 76.57755095 -109.234375 74.76171875 C-107.44673614 63.62539077 -103.26725612 55.01860567 -95.046875 47.19921875 C-94.221875 46.35359375 -93.396875 45.50796875 -92.546875 44.63671875 C-87.89862019 40.10467031 -83.3470774 37.15771718 -77.484375 34.51171875 C-76.82501953 34.20427734 -76.16566406 33.89683594 -75.48632812 33.58007812 C-63.51827204 28.08319206 -45.51316916 28.08834963 -33.046875 32.19921875 C-26.06172525 35.22285796 -19.30195078 38.60432283 -14.046875 44.19921875 C-13.36625 44.50859375 -12.685625 44.81796875 -11.984375 45.13671875 C-9.29443609 46.61184654 -8.55426995 48.54620364 -7.046875 51.19921875 C-5.87125 52.43671875 -5.87125 52.43671875 -4.671875 53.69921875 C4.72958569 64.77646851 5.92240749 82.36771147 4.953125 96.19921875 C2.49170705 113.96693318 -6.57206592 126.8065695 -20.6640625 137.515625 C-30.40853577 144.40065447 -43.15105366 147.36929954 -55.046875 146.19921875 C-57.609375 145.19921875 -57.609375 145.19921875 -59.046875 143.19921875 C-59.36749304 140.44407731 -59.22999176 137.99174939 -59.046875 135.19921875 C-58.386875 135.19921875 -57.726875 135.19921875 -57.046875 135.19921875 C-57.046875 134.53921875 -57.046875 133.87921875 -57.046875 133.19921875 C-55.79132813 133.04066406 -54.53578125 132.88210937 -53.2421875 132.71875 C-37.00675711 130.5224494 -25.94731576 126.02792395 -15.171875 113.01171875 C-8.65165858 102.9413489 -7.52906174 89.70552474 -9.58984375 78.15625 C-11.60391666 70.08883089 -14.77113593 63.60547334 -20.046875 57.19921875 C-20.046875 56.53921875 -20.046875 55.87921875 -20.046875 55.19921875 C-20.706875 55.19921875 -21.366875 55.19921875 -22.046875 55.19921875 C-22.046875 54.53921875 -22.046875 53.87921875 -22.046875 53.19921875 C-23.036875 53.19921875 -24.026875 53.19921875 -25.046875 53.19921875 C-25.046875 52.53921875 -25.046875 51.87921875 -25.046875 51.19921875 C-26.0059375 50.82796875 -26.0059375 50.82796875 -26.984375 50.44921875 C-28.70376622 49.74742642 -30.41689454 49.02757471 -32.1015625 48.24609375 C-41.19283129 44.03076497 -48.93584613 42.50357996 -59.046875 43.19921875 C-59.376875 43.52921875 -59.706875 43.85921875 -60.046875 44.19921875 C-61.35456511 44.4732677 -62.6684456 44.71794821 -63.984375 44.94921875 C-69.50363022 46.11302337 -74.11404176 48.54111172 -79.046875 51.19921875 C-79.76230469 51.49828125 -80.47773438 51.79734375 -81.21484375 52.10546875 C-83.53456081 53.49037446 -83.94899398 54.76245845 -85.046875 57.19921875 C-86.14807674 58.593351 -87.27520259 59.96723961 -88.421875 61.32421875 C-93.61251735 67.86659087 -97.12772067 75.8800888 -97.20509338 84.32476807 C-97.21977661 85.54465424 -97.21977661 85.54465424 -97.23475647 86.78918457 C-97.24051193 87.67247437 -97.2462674 88.55576416 -97.25219727 89.46582031 C-97.26209686 90.40274719 -97.27199646 91.33967407 -97.28219604 92.30499268 C-97.31376754 95.39991738 -97.33855135 98.49485744 -97.36328125 101.58984375 C-97.38385453 103.73647458 -97.4048511 105.8831014 -97.42625427 108.02972412 C-97.48143631 113.678393 -97.53086269 119.32709821 -97.57910156 124.97583008 C-97.62934479 130.74043001 -97.68501614 136.50497721 -97.74023438 142.26953125 C-97.84776866 153.57938204 -97.94922418 164.88927861 -98.046875 176.19921875 C-101.75439453 177.32568359 -101.75439453 177.32568359 -104.38671875 176.1875 C-125.70216759 162.4366315 -141.6170722 143.07905357 -150.046875 119.19921875 C-150.418125 118.16410156 -150.789375 117.12898437 -151.171875 116.0625 C-151.97538475 113.43315783 -152.39076689 111.11699445 -152.609375 108.38671875 C-152.65255121 105.49606795 -152.65255121 105.49606795 -154.046875 103.19921875 C-156.58008554 79.49962682 -153.1992687 57.38876677 -142.046875 36.19921875 C-141.386875 36.19921875 -140.726875 36.19921875 -140.046875 36.19921875 C-139.76328125 35.45542969 -139.4796875 34.71164063 -139.1875 33.9453125 C-130.77907022 13.70172984 -108.4932015 -0.7213757 -89.046875 -8.80078125 C-59.49157325 -19.19758364 -26.60019583 -17.23584118 0 0 Z " fill="#0447A3" transform="translate(303.046875,114.80078125)"/>
<path d="M0 0 C6.33078041 2.92264556 11.28821943 8.61530145 14 15 C14.98902757 21.70456582 14.37918321 26.84892124 10.34765625 32.3515625 C9.68056641 33.16753906 9.68056641 33.16753906 9 34 C8.401875 34.763125 7.80375 35.52625 7.1875 36.3125 C1.60925384 40.61571846 -4.11824421 41.45878372 -11 41 C-13.5 40.5 -13.5 40.5 -15 40 C-15 39.34 -15 38.68 -15 38 C-15.87591797 37.86658203 -15.87591797 37.86658203 -16.76953125 37.73046875 C-21.00825606 36.34230493 -23.5088798 32.55312408 -26 29 C-26.9375 25.9375 -26.9375 25.9375 -27 23 C-27.061875 21.845 -27.12375 20.69 -27.1875 19.5 C-26.95872441 15.22952231 -25.90427502 11.80855004 -24 8 C-23.34 8 -22.68 8 -22 8 C-22 7.34 -22 6.68 -22 6 C-21.34 6 -20.68 6 -20 6 C-20 5.34 -20 4.68 -20 4 C-14.51802784 -1.48197216 -7.32090385 -1.11150709 0 0 Z " fill="#E7816C" transform="translate(255,184)"/>
<path d="M0 0 C1 2 1 2 0.51171875 3.8828125 C0.23972656 4.62273437 -0.03226563 5.36265625 -0.3125 6.125 C-2.91627167 13.26314476 -4.296435 19.78379006 -4.31884766 27.34375 C-4.33391609 28.53056114 -4.33391609 28.53056114 -4.34928894 29.74134827 C-4.37990473 32.32755886 -4.3970953 34.91366701 -4.4140625 37.5 C-4.43279158 39.30461495 -4.45236627 41.10922131 -4.4727478 42.91381836 C-4.52389127 47.6417736 -4.56361175 52.36975718 -4.60089111 57.09783936 C-4.64104275 61.93118192 -4.69208398 66.76440842 -4.7421875 71.59765625 C-4.83873598 81.06502242 -4.92320769 90.5324544 -5 100 C-7.475 100.495 -7.475 100.495 -10 101 C-10.495 102.485 -10.495 102.485 -11 104 C-11.66 104 -12.32 104 -13 104 C-13 105.32 -13 106.64 -13 108 C-11.35 108.33 -9.7 108.66 -8 109 C-8 109.66 -8 110.32 -8 111 C-7.34 111 -6.68 111 -6 111 C-6 111.66 -6 112.32 -6 113 C-5.34 113 -4.68 113 -4 113 C-4 113.99 -4 114.98 -4 116 C-23.90840294 106.88476312 -38.46899382 84.63201574 -46.21484375 64.90625 C-48.34974746 58.8890125 -49.47947081 53.3504561 -50 47 C-50.33 46.67 -50.66 46.34 -51 46 C-51.07179964 44.48071962 -51.08392007 42.95832518 -51.0625 41.4375 C-51.05347656 40.61121094 -51.04445312 39.78492188 -51.03515625 38.93359375 C-51.02355469 38.29550781 -51.01195312 37.65742188 -51 37 C-48.64026526 41.21090597 -47.8323249 45.64759911 -46.78125 50.3203125 C-46.19700937 53.12361115 -46.19700937 53.12361115 -44 55 C-44 55.99 -44 56.98 -44 58 C-43.01 58 -42.02 58 -41 58 C-41.33 56.35 -41.66 54.7 -42 53 C-41.01 52.505 -41.01 52.505 -40 52 C-40.16081055 50.99171143 -40.32162109 49.98342285 -40.48730469 48.94458008 C-41.23052712 43.22636828 -41.22399608 37.5324103 -41.24023438 31.77661133 C-41.24992812 29.70287767 -41.28101249 27.63014221 -41.3125 25.55664062 C-41.37163071 17.90643346 -40.83567285 11.16509945 -38 4 C-37.34 4.33 -36.68 4.66 -36 5 C-35.82954148 7.89779476 -35.97499876 9.93017947 -36.9609375 12.68359375 C-42.18933855 29.37123468 -38.73615745 51.83225745 -30.99609375 67.13671875 C-29.61970733 69.74213217 -28.1767498 72.30187662 -26.70703125 74.85546875 C-25.34719418 77.36043178 -24.46108576 79.22660355 -24 82 C-23.34 82 -22.68 82 -22 82 C-20.7109375 83.4609375 -20.7109375 83.4609375 -19.375 85.375 C-18.92898437 86.00148438 -18.48296875 86.62796875 -18.0234375 87.2734375 C-17 89 -17 89 -17 91 C-16.34 91 -15.68 91 -15 91 C-15 91.66 -15 92.32 -15 93 C-14.38125 93.28875 -13.7625 93.5775 -13.125 93.875 C-11 95 -11 95 -9 97 C-8.98969254 96.08767105 -8.97938507 95.1753421 -8.96876526 94.23536682 C-8.87096739 85.65609996 -8.76847872 77.07690493 -8.66066074 68.49775791 C-8.60539168 64.086666 -8.55196546 59.67556751 -8.50268555 55.2644043 C-8.45510055 51.01093013 -8.40276014 46.75753911 -8.34705925 42.50416374 C-8.32660902 40.87780757 -8.30790044 39.25142858 -8.29092598 37.62503242 C-8.26694073 35.35483637 -8.23687865 33.08479887 -8.20532227 30.81469727 C-8.18977798 29.52008072 -8.1742337 28.22546417 -8.15821838 26.89161682 C-8 24 -8 24 -7 23 C-6.6992016 21.19223141 -6.43500834 19.3783322 -6.1875 17.5625 C-4.0546875 4.0546875 -4.0546875 4.0546875 0 0 Z " fill="#0547A2" transform="translate(200,172)"/>
<path d="M0 0 C0.98427979 -0.00128906 1.96855957 -0.00257812 2.98266602 -0.00390625 C12.3205274 0.1287274 20.97471055 1.86855201 29.9375 4.375 C29.9375 4.705 29.9375 5.035 29.9375 5.375 C25.70882235 5.5287701 22.12895266 5.51586486 18.05859375 4.34765625 C11.55209615 2.83660823 5.06194611 3.37124051 -1.5625 3.6875 C-2.84898437 3.73583984 -4.13546875 3.78417969 -5.4609375 3.83398438 C-11.14438591 3.53054385 -11.14438591 3.53054385 -16.0625 5.375 C-19.35523652 5.87389947 -22.65519098 6.27654768 -25.9609375 6.6796875 C-29.1023531 7.38393432 -30.33064684 7.69623432 -32.0625 10.375 C-32.0625 11.695 -32.0625 13.015 -32.0625 14.375 C-28.1025 14.375 -24.1425 14.375 -20.0625 14.375 C-23.41133113 16.04941557 -26.61866444 17.34687039 -30.125 18.625 C-36.44539225 21.02972836 -42.22226336 23.98599146 -48.0625 27.375 C-49.45831773 28.16669418 -50.85414875 28.95836492 -52.25 29.75 C-53.178125 30.28625 -54.10625 30.8225 -55.0625 31.375 C-55.0625 30.385 -55.0625 29.395 -55.0625 28.375 C-54.0725 28.045 -53.0825 27.715 -52.0625 27.375 C-51.7325 26.715 -51.4025 26.055 -51.0625 25.375 C-54.6925 26.035 -58.3225 26.695 -62.0625 27.375 C-61.7325 26.055 -61.4025 24.735 -61.0625 23.375 C-61.7225 23.045 -62.3825 22.715 -63.0625 22.375 C-44.87261573 7.88475321 -23.37067904 -0.03227716 0 0 Z " fill="#0448A7" transform="translate(250.0625,99.625)"/>
<path d="M0 0 C2.30859375 1.57421875 2.30859375 1.57421875 4 3 C-0.24805668 3.18880252 -3.95707646 2.86653754 -8.125 2 C-14.39391242 0.77233798 -20.62835331 0.5810691 -27 1 C-27.33 1.33 -27.66 1.66 -28 2 C-29.68608966 2.07205511 -31.37500659 2.08386068 -33.0625 2.0625 C-33.98160156 2.05347656 -34.90070313 2.04445312 -35.84765625 2.03515625 C-36.55792969 2.02355469 -37.26820313 2.01195312 -38 2 C-37.34 3.32 -36.68 4.64 -36 6 C-36.66 6.99 -37.32 7.98 -38 9 C-37.17822266 8.89171875 -37.17822266 8.89171875 -36.33984375 8.78125 C-16.16205534 6.41897233 -16.16205534 6.41897233 -11 9 C-8.62597499 9.07116382 -6.24999323 9.08409085 -3.875 9.0625 C-2.59367187 9.05347656 -1.31234375 9.04445312 0.0078125 9.03515625 C0.99523437 9.02355469 1.98265625 9.01195312 3 9 C2.34 9.99 1.68 10.98 1 12 C2.65 13.98 4.3 15.96 6 18 C3.19431906 16.89473175 0.43554753 15.74439888 -2.3125 14.5 C-10.29823096 11.25156707 -17.39974744 10.40830262 -26 11 C-26.33 11.33 -26.66 11.66 -27 12 C-28.30769011 12.27404895 -29.6215706 12.51872946 -30.9375 12.75 C-38.25351606 14.3018822 -44.72256605 18.02429183 -51 22 C-51.41176754 18.39703406 -51.1535853 17.21597933 -49 14.1875 C-48.34 13.465625 -47.68 12.74375 -47 12 C-47.66 11.67 -48.32 11.34 -49 11 C-49 10.34 -49 9.68 -49 9 C-50.65 9.33 -52.3 9.66 -54 10 C-54.33 10.99 -54.66 11.98 -55 13 C-55.99 13 -56.98 13 -58 13 C-58.268125 13.598125 -58.53625 14.19625 -58.8125 14.8125 C-59.99308761 16.98726664 -61.26816512 18.26816512 -63 20 C-63.33 20.99 -63.66 21.98 -64 23 C-66.5625 24.1875 -66.5625 24.1875 -69 25 C-67.59168351 20.51899299 -65.41176733 18.17373705 -62 15 C-61.175 14.154375 -60.35 13.30875 -59.5 12.4375 C-54.85174519 7.90545156 -50.3002024 4.95849843 -44.4375 2.3125 C-43.4484668 1.85133789 -43.4484668 1.85133789 -42.43945312 1.38085938 C-30.42600709 -4.13687413 -12.5407281 -4.02249769 0 0 Z " fill="#0447A5" transform="translate(270,147)"/>
<path d="M0 0 C0.99 0.66 1.98 1.32 3 2 C3.27028374 5.71640139 3.180933 8.457201 2 12 C1.90430002 14.33309321 1.86926087 16.66885205 1.8671875 19.00390625 C1.86623077 19.68299545 1.86527405 20.36208466 1.86428833 21.06175232 C1.86360876 22.49486382 1.86544747 23.92797842 1.86962891 25.36108398 C1.87498865 27.55784994 1.86967218 29.75441221 1.86328125 31.95117188 C1.86394191 33.34375045 1.86522282 34.7363289 1.8671875 36.12890625 C1.86831543 37.39806885 1.86944336 38.66723145 1.87060547 39.97485352 C1.79023871 42.920963 1.79023871 42.920963 3 45 C3.039992 46.99960012 3.04346799 49.00047242 3 51 C2.34 51 1.68 51 1 51 C1 52.65 1 54.3 1 56 C0.01 56 -0.98 56 -2 56 C-2.33 56.66 -2.66 57.32 -3 58 C-3 56.02 -3 54.04 -3 52 C-3.66 52 -4.32 52 -5 52 C-8.02024462 42.22633285 -9.37996204 33.32191243 -8.875 23.0625 C-8.82867432 22.09747559 -8.78234863 21.13245117 -8.73461914 20.13818359 C-8.28243681 13.28243681 -8.28243681 13.28243681 -6 11 C-5.18818331 8.72181286 -4.53972293 6.41982471 -3.87890625 4.09375 C-3 2 -3 2 0 0 Z " fill="#0348A7" transform="translate(158,174)"/>
<path d="M0 0 C0 1.65 0 3.3 0 5 C-2 5.66666667 -4 6.33333333 -6 7 C-7.010625 7.37125 -8.02125 7.7425 -9.0625 8.125 C-11.89405977 8.96844334 -14.06961603 9.17237553 -17 9 C-17 9.66 -17 10.32 -17 11 C-20.63 11.33 -24.26 11.66 -28 12 C-28 12.33 -28 12.66 -28 13 C-32.62 13 -37.24 13 -42 13 C-44.44140625 6.1640625 -44.44140625 6.1640625 -45 4 C-44.67 3.34 -44.34 2.68 -44 2 C-41.84204102 1.62109375 -41.84204102 1.62109375 -39.00390625 1.4375 C-37.96943359 1.36273438 -36.93496094 1.28796875 -35.86914062 1.2109375 C-34.77794922 1.14132812 -33.68675781 1.07171875 -32.5625 1 C-25.65647153 0.54493528 -18.98547967 -0.0221259 -12.23413086 -1.59765625 C-7.56590604 -2.43835503 -4.30744352 -1.96911704 0 0 Z " fill="#04459F" transform="translate(289,290)"/>
<path d="M0 0 C6.23100541 0.03442544 12.05562993 0.82523658 18.125 2.1875 C18.125 2.8475 18.125 3.5075 18.125 4.1875 C19.775 4.1875 21.425 4.1875 23.125 4.1875 C23.62 5.6725 23.62 5.6725 24.125 7.1875 C19.64979327 10.65217618 15.563918 10.74314585 10.125 10.1875 C9.465 9.8575 8.805 9.5275 8.125 9.1875 C5.65494663 9.08916064 3.21942339 9.04846919 0.75 9.0625 C-0.25933594 9.05669922 -0.25933594 9.05669922 -1.2890625 9.05078125 C-4.65609005 9.05740926 -7.64011059 9.27454232 -10.875 10.1875 C-13.20800933 10.22638349 -15.54209801 10.2323635 -17.875 10.1875 C-17.524375 9.424375 -17.17375 8.66125 -16.8125 7.875 C-15.55139116 5.13990621 -15.55139116 5.13990621 -16.875 2.1875 C-16.16472656 2.12691406 -15.45445312 2.06632813 -14.72265625 2.00390625 C-13.34400391 1.87822266 -13.34400391 1.87822266 -11.9375 1.75 C-11.02097656 1.66878906 -10.10445312 1.58757812 -9.16015625 1.50390625 C-5.78496775 1.03657246 -3.80342728 0.0223731 0 0 Z " fill="#0148AA" transform="translate(248.875,146.8125)"/>
<path d="M0 0 C0.66 0 1.32 0 2 0 C2.515625 1.051875 3.03125 2.10375 3.5625 3.1875 C5.93741111 7.42290105 9.01816468 9.31991853 13 12 C13 12.66 13 13.32 13 14 C11.9275 14.515625 10.855 15.03125 9.75 15.5625 C5.53003795 17.93355373 4.06854018 20.69743642 2 25 C-1 24 -1 24 -2.75 21.1875 C-5.50204146 17.28877459 -7.78473403 16.10763299 -12 14 C-11.67 13.01 -11.34 12.02 -11 11 C-10.0925 10.608125 -9.185 10.21625 -8.25 9.8125 C-4.35063355 7.63785333 -3.15385191 5.48462603 -1.078125 1.64453125 C-0.72234375 1.10183594 -0.3665625 0.55914062 0 0 Z " fill="#707070" transform="translate(472,460)"/>
<path d="M0 0 C0.33 0.66 0.66 1.32 1 2 C1.66 2 2.32 2 3 2 C2.566875 2.804375 2.566875 2.804375 2.125 3.625 C0.08492403 7.93182704 -1.17329342 12.31532939 -2 17 C-2.66 17 -3.32 17 -4 17 C-4.33 17.99 -4.66 18.98 -5 20 C-5.66 19.67 -6.32 19.34 -7 19 C-6.67 20.32 -6.34 21.64 -6 23 C-6.66 23.33 -7.32 23.66 -8 24 C-8.66 23.67 -9.32 23.34 -10 23 C-10 23.99 -10 24.98 -10 26 C-11.32 26 -12.64 26 -14 26 C-14 26.66 -14 27.32 -14 28 C-14.66 28 -15.32 28 -16 28 C-16.33 27.34 -16.66 26.68 -17 26 C-17.928125 26.5259375 -17.928125 26.5259375 -18.875 27.0625 C-19.926875 27.5265625 -19.926875 27.5265625 -21 28 C-21.66 27.67 -22.32 27.34 -23 27 C-23 26.01 -23 25.02 -23 24 C-22.360625 23.896875 -21.72125 23.79375 -21.0625 23.6875 C-20.0415625 23.3471875 -20.0415625 23.3471875 -19 23 C-18.67 22.01 -18.34 21.02 -18 20 C-17.236875 19.5875 -16.47375 19.175 -15.6875 18.75 C-12.94164751 16.96200303 -12.41443222 16.22595209 -11 13.4375 C-9 10 -9 10 -6.375 9 C-5.59125 8.67 -4.8075 8.34 -4 8 C-2.77030122 4.48809191 -2.77030122 4.48809191 -2 1 C-1.34 0.67 -0.68 0.34 0 0 Z " fill="#0348A7" transform="translate(327,252)"/>
<path d="M0 0 C0.8125 1.6875 0.8125 1.6875 1 4 C0.21625 4.721875 -0.5675 5.44375 -1.375 6.1875 C-5.68345242 10.80369903 -5 15.93561319 -5 22 C-4.54625 21.505 -4.0925 21.01 -3.625 20.5 C-2 19 -2 19 0 19 C-1.15678148 22.26002052 -2.63858101 25.149045 -4.375 28.125 C-7.25287908 33.18904241 -9.1562693 38.48940823 -11 44 C-12.08894113 40.76899703 -11.94537848 39.2464691 -10.5 36.1875 C-8.83322781 32.11906061 -9.00088811 29.32948487 -10 25 C-10.2784375 23.7934375 -10.2784375 23.7934375 -10.5625 22.5625 C-10.706875 22.046875 -10.85125 21.53125 -11 21 C-14.80984844 23.77079887 -15.06840752 27.62868145 -16 32 C-16.99 32 -17.98 32 -19 32 C-19.33 31.34 -19.66 30.68 -20 30 C-19.00390625 27.3984375 -19.00390625 27.3984375 -17.5625 24.375 C-16.85287109 22.87066406 -16.85287109 22.87066406 -16.12890625 21.3359375 C-15.75636719 20.56507813 -15.38382813 19.79421875 -15 19 C-14.34 19 -13.68 19 -13 19 C-12.72800781 18.2678125 -12.45601562 17.535625 -12.17578125 16.78125 C-9.42863408 10.28301483 -5.19034487 4.73237327 0 0 Z " fill="#084697" transform="translate(176,132)"/>
<path d="M0 0 C1 2 1 2 0.51171875 3.8828125 C0.10373047 4.99269531 0.10373047 4.99269531 -0.3125 6.125 C-2.91627167 13.26314476 -4.296435 19.78379006 -4.31884766 27.34375 C-4.32889328 28.13495743 -4.3389389 28.92616486 -4.34928894 29.74134827 C-4.37990473 32.32755886 -4.3970953 34.91366701 -4.4140625 37.5 C-4.43279158 39.30461495 -4.45236627 41.10922131 -4.4727478 42.91381836 C-4.52389127 47.6417736 -4.56361175 52.36975718 -4.60089111 57.09783936 C-4.64104275 61.93118192 -4.69208398 66.76440842 -4.7421875 71.59765625 C-4.83873598 81.06502242 -4.92320769 90.5324544 -5 100 C-6.98 100.495 -6.98 100.495 -9 101 C-8.01 100.505 -8.01 100.505 -7 100 C-7.00444122 99.06198547 -7.00888245 98.12397095 -7.01345825 97.15753174 C-7.05418459 88.2727343 -7.08407033 79.38795606 -7.10362434 70.50308609 C-7.11401552 65.93642505 -7.12808842 61.36983999 -7.15087891 56.80322266 C-7.17277504 52.38765476 -7.18460362 47.97215948 -7.18975449 43.55654144 C-7.19342038 41.8806316 -7.20057799 40.20472526 -7.21146011 38.52884674 C-7.29336944 25.37920959 -6.85095377 13.08183961 -1 1 C-0.67 0.67 -0.34 0.34 0 0 Z " fill="#174D95" transform="translate(200,172)"/>
<path d="M0 0 C0.33 0 0.66 0 1 0 C1.09266175 9.8400054 1.16374551 19.67990709 1.20724869 29.52025986 C1.22812765 34.08950964 1.25645071 38.65846102 1.30175781 43.22753906 C1.34520488 47.63660873 1.36913478 52.0453913 1.37950897 56.45465851 C1.38690243 58.13721487 1.40134017 59.81975543 1.42292023 61.50218964 C1.45194003 63.85825101 1.45595675 66.21312473 1.45410156 68.56933594 C1.47567322 69.61374847 1.47567322 69.61374847 1.49768066 70.67926025 C1.46875515 74.07212827 1.19740771 75.74440496 -0.90338135 78.4644165 C-3 80 -3 80 -5 80 C-5 81.32 -5 82.64 -5 84 C-3.35 84.33 -1.7 84.66 0 85 C0 85.66 0 86.32 0 87 C0.66 87 1.32 87 2 87 C2 87.66 2 88.32 2 89 C2.66 89 3.32 89 4 89 C4 89.99 4 90.98 4 92 C-3.57927395 88.56919701 -10.04700969 82.60398708 -15 76 C-12.03 76.33 -9.06 76.66 -6 77 C-5.34 75.68 -4.68 74.36 -4 73 C-7.71599191 72.79913557 -8.77208445 72.8480563 -12 75 C-11.34 73.68 -10.68 72.36 -10 71 C-8.68 71 -7.36 71 -6 71 C-5.505 70.01 -5.505 70.01 -5 69 C-3.68 70.32 -2.36 71.64 -1 73 C-0.67 48.91 -0.34 24.82 0 0 Z " fill="#053166" transform="translate(192,196)"/>
<path d="M0 0 C0.99 0.33 1.98 0.66 3 1 C2.236875 1.845625 1.47375 2.69125 0.6875 3.5625 C-1.26160503 5.86748095 -2.49811924 7.92939099 -3.5625 10.75 C-5 14 -5 14 -7.1875 15.4375 C-8.0846875 15.7159375 -8.0846875 15.7159375 -9 16 C-9 17.65 -9 19.3 -9 21 C-9.66 21 -10.32 21 -11 21 C-11.33 21.99 -11.66 22.98 -12 24 C-12.66 24 -13.32 24 -14 24 C-15.74656908 13.35224154 -15.74656908 13.35224154 -12 8 C-11.01 7.34 -10.02 6.68 -9 6 C-8.27617533 3.94074861 -8.27617533 3.94074861 -8 2 C-6.2984375 1.7834375 -6.2984375 1.7834375 -4.5625 1.5625 C-1.19222799 1.38828522 -1.19222799 1.38828522 0 0 Z " fill="#0346A7" transform="translate(185,130)"/>
<path d="M0 0 C0.98427979 -0.00128906 1.96855957 -0.00257812 2.98266602 -0.00390625 C12.3205274 0.1287274 20.97471055 1.86855201 29.9375 4.375 C29.9375 4.705 29.9375 5.035 29.9375 5.375 C25.70882235 5.5287701 22.12895266 5.51586486 18.05859375 4.34765625 C11.55209615 2.83660823 5.06194611 3.37124051 -1.5625 3.6875 C-2.84898437 3.73583984 -4.13546875 3.78417969 -5.4609375 3.83398438 C-11.14438591 3.53054385 -11.14438591 3.53054385 -16.0625 5.375 C-18.12019762 5.69881508 -20.18404877 5.98387747 -22.25 6.25 C-27.14567565 6.95091094 -30.67707107 8.07264981 -35.0625 10.375 C-37.9375 10.0625 -37.9375 10.0625 -40.0625 9.375 C-36.76925168 6.53487675 -33.66957188 5.46320866 -29.5 4.3125 C-28.36433594 3.99152344 -27.22867188 3.67054687 -26.05859375 3.33984375 C-17.38478791 1.15424705 -8.9480634 -0.01235814 0 0 Z " fill="#0E3876" transform="translate(250.0625,99.625)"/>
<path d="M0 0 C-2.57328221 5.14656443 -11.42288699 7.44775077 -16.55859375 9.24609375 C-22.76501038 11.10190069 -28.73215071 12.45452737 -35.20703125 12.82421875 C-37.02226116 12.81068135 -37.02226116 12.81068135 -38 14 C-50.72562452 14.85101377 -50.72562452 14.85101377 -56 12 C-57.74495255 8.74275524 -56.71502541 5.49567977 -56 2 C-54 3 -54 3 -53.3671875 4.84765625 C-52.91145833 6.8984375 -52.45572917 8.94921875 -52 11 C-47.71 11 -43.42 11 -39 11 C-39 10.67 -39 10.34 -39 10 C-35.04 10 -31.08 10 -27 10 C-27 9.34 -27 8.68 -27 8 C-25.82630859 7.69255859 -25.82630859 7.69255859 -24.62890625 7.37890625 C-23.61699219 7.10949219 -22.60507812 6.84007812 -21.5625 6.5625 C-20.55316406 6.29566406 -19.54382813 6.02882813 -18.50390625 5.75390625 C-16.08247999 5.24021923 -16.08247999 5.24021923 -15 4 C-13.33382885 3.95936168 -11.66611905 3.957279 -10 4 C-10 3.34 -10 2.68 -10 2 C-6.49223216 0.39644899 -3.85645121 -0.22036864 0 0 Z " fill="#0C2F5D" transform="translate(299,291)"/>
<path d="M0 0 C0.66 0.33 1.32 0.66 2 1 C2.17045852 3.89779476 2.02500124 5.93017947 1.0390625 8.68359375 C-4.67265503 26.91385009 1.05811598 47.57224196 7 65 C6.01 65.495 6.01 65.495 5 66 C4.54625 65.525625 4.0925 65.05125 3.625 64.5625 C2.06741796 62.90972192 2.06741796 62.90972192 0 62 C0.061875 60.7625 0.12375 59.525 0.1875 58.25 C0.20414353 54.42494685 -0.39400881 51.30505855 -1.48828125 47.6484375 C-3.2409817 40.87652228 -3.45701458 34.37143354 -3.39111328 27.39941406 C-3.37495834 25.36976542 -3.39109218 23.34209064 -3.41015625 21.3125 C-3.38774008 13.70594548 -2.77789704 7.11453812 0 0 Z " fill="#134A85" transform="translate(162,176)"/>
<path d="M0 0 C0.33 0 0.66 0 1 0 C2.94333708 8.66015743 3.42165961 17.07726235 3.4375 25.9375 C3.43956451 26.61309967 3.44162903 27.28869934 3.4437561 27.98477173 C3.42810821 56.63268912 3.42810821 56.63268912 -5 66 C-5.14157065 62.95623095 -5.24552422 60.58925814 -4.0625 57.75 C-2.77063355 54.40634565 -2.33959536 51.23833595 -1.875 47.6875 C-1.70742188 46.43324219 -1.53984375 45.17898437 -1.3671875 43.88671875 C-1.24601562 42.93410156 -1.12484375 41.98148438 -1 41 C-0.34 41 0.32 41 1 41 C0.85852776 36.93733588 0.71183609 32.87488261 0.5625 28.8125 C0.51883301 27.62333984 0.47516602 26.43417969 0.43017578 25.20898438 C0.15868991 18.15614856 -0.20787343 11.14871836 -0.9140625 4.125 C-1 2 -1 2 0 0 Z " fill="#134987" transform="translate(348,177)"/>
<path d="M0 0 C0.66 0.33 1.32 0.66 2 1 C-1.79256539 4.63627836 -6.27862147 5.1893404 -11.25 6.1875 C-12.09046875 6.36474609 -12.9309375 6.54199219 -13.796875 6.72460938 C-15.86267921 7.15889776 -17.9311042 7.58068676 -20 8 C-20 10.31 -20 12.62 -20 15 C-15.17805357 14.67495741 -15.17805357 14.67495741 -11.0625 12.4375 C-10.711875 11.963125 -10.36125 11.48875 -10 11 C-9.67 11.33 -9.34 11.66 -9 12 C-3.59347171 12.39446773 1.67403774 11.90654677 7 11 C6.67 11.99 6.34 12.98 6 14 C-15.3892513 18.40907266 -15.3892513 18.40907266 -21.5625 16 C-23.87460278 12.78316135 -23.25501172 9.88892873 -23 6 C-22.34 6 -21.68 6 -21 6 C-21 5.34 -21 4.68 -21 4 C-20.43490723 3.91435791 -19.86981445 3.82871582 -19.28759766 3.74047852 C-16.73285367 3.35130182 -14.17893253 2.95696515 -11.625 2.5625 C-10.73554688 2.42779297 -9.84609375 2.29308594 -8.9296875 2.15429688 C-7.65351563 1.95610352 -7.65351563 1.95610352 -6.3515625 1.75390625 C-5.17327881 1.57323608 -5.17327881 1.57323608 -3.97119141 1.38891602 C-1.93388316 1.07761762 -1.93388316 1.07761762 0 0 Z " fill="#114386" transform="translate(267,244)"/>
<path d="M0 0 C2.30859375 1.57421875 2.30859375 1.57421875 4 3 C-0.24805668 3.18880252 -3.95707646 2.86653754 -8.125 2 C-14.39391242 0.77233798 -20.62835331 0.5810691 -27 1 C-27.33 1.33 -27.66 1.66 -28 2 C-31.25843529 2.54080028 -34.52682882 2.96606118 -37.80078125 3.40234375 C-40.65338171 3.93524713 -42.47884556 4.6698545 -45 6 C-45.99 6 -46.98 6 -48 6 C-48 6.66 -48 7.32 -48 8 C-49.65 8 -51.3 8 -53 8 C-51.36622293 4.73244586 -47.88749325 3.88932107 -44.6875 2.4375 C-44.01009766 2.12103516 -43.33269531 1.80457031 -42.63476562 1.47851562 C-30.52768664 -4.09571136 -12.66429427 -4.06213212 0 0 Z " fill="#10407C" transform="translate(270,147)"/>
<path d="M0 0 C0.763125 0.309375 1.52625 0.61875 2.3125 0.9375 C4.18789677 1.67893593 6.08684652 2.36228217 8 3 C9.16958222 4.13616559 10.33415684 5.27840486 11.4609375 6.45703125 C14.47686661 9.480615 17.7652703 12.21476128 21 15 C20.01 15.495 20.01 15.495 19 16 C17.0546875 15.00390625 17.0546875 15.00390625 14.875 13.5625 C14.15054687 13.08941406 13.42609375 12.61632812 12.6796875 12.12890625 C11.84824219 11.57009766 11.84824219 11.57009766 11 11 C11 11.66 11 12.32 11 13 C10.01 13.33 9.02 13.66 8 14 C7.67 14.99 7.34 15.98 7 17 C7.99 17.33 8.98 17.66 10 18 C10.6875 20.0625 10.6875 20.0625 11 22 C9.0625 21.1875 9.0625 21.1875 7 20 C6.67 19.01 6.34 18.02 6 17 C5.4225 16.855625 4.845 16.71125 4.25 16.5625 C1.17597837 15.79399459 -0.57482905 14.00076603 -3 12 C-4.31138904 11.29114106 -5.63777017 10.60543548 -7 10 C-4.5332355 9.11663163 -3.36140628 8.8687594 -0.859375 9.77734375 C-0.16328125 10.16019531 0.5328125 10.54304688 1.25 10.9375 C1.95640625 11.31777344 2.6628125 11.69804688 3.390625 12.08984375 C3.92171875 12.39019531 4.4528125 12.69054687 5 13 C6.37562854 11.71034824 7.70766393 10.37310707 9 9 C9 8.34 9 7.68 9 7 C8.443125 6.731875 7.88625 6.46375 7.3125 6.1875 C4.78774666 4.89100504 2.36285516 3.57523677 0 2 C0 1.34 0 0.68 0 0 Z " fill="#0B4290" transform="translate(300,114)"/>
<path d="M0 0 C0.33 0 0.66 0 1 0 C1 32.34 1 64.68 1 98 C-0.32 98 -1.64 98 -3 98 C-3 97.34 -3 96.68 -3 96 C-4.32 96 -5.64 96 -7 96 C-7 95.01 -7 94.02 -7 93 C-7.66 92.67 -8.32 92.34 -9 92 C-8.01 92 -7.02 92 -6 92 C-6 92.99 -6 93.98 -6 95 C-3.525 94.01 -3.525 94.01 -1 93 C-0.67 62.31 -0.34 31.62 0 0 Z " fill="#0F4EA3" transform="translate(203,192)"/>
<path d="M0 0 C2.37402501 0.07116382 4.75000677 0.08409085 7.125 0.0625 C8.40632813 0.05347656 9.68765625 0.04445312 11.0078125 0.03515625 C11.99523437 0.02355469 12.98265625 0.01195312 14 0 C13.34 0.99 12.68 1.98 12 3 C14.475 5.97 14.475 5.97 17 9 C14.19431906 7.89473175 11.43554753 6.74439888 8.6875 5.5 C0.70176904 2.25156707 -6.39974744 1.40830262 -15 2 C-15.33 2.33 -15.66 2.66 -16 3 C-17.67884238 3.3931648 -19.36850045 3.74085452 -21.0625 4.0625 C-21.98160156 4.23910156 -22.90070313 4.41570312 -23.84765625 4.59765625 C-24.55792969 4.73042969 -25.26820313 4.86320313 -26 5 C-25.67 3.68 -25.34 2.36 -25 1 C-18.16266657 -1.23259867 -6.67556872 -3.33778436 0 0 Z " fill="#0F3F82" transform="translate(259,156)"/>
<path d="M0 0 C3.33333333 1.66666667 6.66666667 3.33333333 10 5 C9.67 5.66 9.34 6.32 9 7 C9 7.33 9 7.66 9 8 C9 9.66666667 9 11.33333333 9 13 C7.68 13.33 6.36 13.66 5 14 C5 13.34 5 12.68 5 12 C4.21625 11.9175 3.4325 11.835 2.625 11.75 C0 11 0 11 -1.1875 9 C-1.455625 8.34 -1.72375 7.68 -2 7 C-2.66 6.67 -3.32 6.34 -4 6 C-3.67 4.68 -3.34 3.36 -3 2 C-2.01 2 -1.02 2 0 2 C0 1.34 0 0.68 0 0 Z " fill="#0448A7" transform="translate(311,125)"/>
<path d="M0 0 C0.99 0 1.98 0 3 0 C3.25394531 0.71027344 3.50789062 1.42054688 3.76953125 2.15234375 C4.11371094 3.07144531 4.45789063 3.99054688 4.8125 4.9375 C5.14894531 5.85402344 5.48539063 6.77054688 5.83203125 7.71484375 C6.83409094 10.3340424 6.83409094 10.3340424 10 11 C10.33 13.64 10.66 16.28 11 19 C12.65 19.33 14.3 19.66 16 20 C16 19.34 16 18.68 16 18 C16.66 18 17.32 18 18 18 C17.67 20.31 17.34 22.62 17 25 C17.99 25 18.98 25 20 25 C20 25.99 20 26.98 20 28 C20.66 28 21.32 28 22 28 C22.33 28.99 22.66 29.98 23 31 C22.01 31.33 21.02 31.66 20 32 C11.17298239 22.90841238 3.21156298 12.41804352 0 0 Z " fill="#0B4893" transform="translate(156,240)"/>
<path d="M0 0 C0.33 0.66 0.66 1.32 1 2 C1.66 2.33 2.32 2.66 3 3 C3.66 3.33 4.32 3.66 5 4 C5 2.68 5 1.36 5 0 C6.32 0.33 7.64 0.66 9 1 C9.19627391 2.58226965 9.38165538 4.16589271 9.5625 5.75 C9.66691406 6.63171875 9.77132813 7.5134375 9.87890625 8.421875 C9.99456676 10.88432451 9.73638695 12.66538064 9 15 C7.35 14.67 5.7 14.34 4 14 C4 12.68 4 11.36 4 10 C3.01 10 2.02 10 1 10 C0.63883954 8.5225254 0.28624952 7.04295325 -0.0625 5.5625 C-0.25972656 4.73878906 -0.45695312 3.91507813 -0.66015625 3.06640625 C-0.82837891 2.04353516 -0.82837891 2.04353516 -1 1 C-0.67 0.67 -0.34 0.34 0 0 Z " fill="#0548A5" transform="translate(325,145)"/>
<path d="M0 0 C0.33 0 0.66 0 1 0 C1.56377723 8.83250989 0.26258646 15.78527339 -3 24 C-3.33 24 -3.66 24 -4 24 C-4.06058594 25.02480469 -4.12117187 26.04960937 -4.18359375 27.10546875 C-4.26805026 28.46615695 -4.35269567 29.82683343 -4.4375 31.1875 C-4.49647461 32.19780273 -4.49647461 32.19780273 -4.55664062 33.22851562 C-4.78927565 36.89699102 -5.17207011 40.41694206 -6 44 C-6.33 44 -6.66 44 -7 44 C-7.3758838 36.24565651 -6.87890122 28.90405578 -5.6875 21.25 C-5.56979248 20.47100342 -5.45208496 19.69200684 -5.33081055 18.8894043 C-4.42050914 13.37576168 -2.88437595 8.25373287 -1 3 C-0.67 2.01 -0.34 1.02 0 0 Z " fill="#0C3A6D" transform="translate(155,164)"/>
<path d="M0 0 C0.33 0 0.66 0 1 0 C1.06058594 0.69867188 1.12117188 1.39734375 1.18359375 2.1171875 C1.26738281 3.02726563 1.35117187 3.93734375 1.4375 4.875 C1.55931641 6.23238281 1.55931641 6.23238281 1.68359375 7.6171875 C1.86989285 10.01110861 1.86989285 10.01110861 3 12 C3.2730888 16.16088028 3.23175575 20.33118926 3.25 24.5 C3.270625 25.64726562 3.29125 26.79453125 3.3125 27.9765625 C3.3452868 35.1732643 2.54958069 41.25495545 0 48 C-1.00824499 44.58142666 -0.81663261 41.99353532 -0.27514648 38.46484375 C1.20943873 28.72647997 0.75564638 19.57361383 -0.27514648 9.79785156 C-0.37899658 8.81268555 -0.48284668 7.82751953 -0.58984375 6.8125 C-0.69159912 5.93207031 -0.79335449 5.05164063 -0.89819336 4.14453125 C-1 2 -1 2 0 0 Z " fill="#0C2E68" transform="translate(338,178)"/>
<path d="M0 0 C2.51092105 4.43581475 2.33172389 8.25947819 2.3125 13.25 C2.32861328 14.07113281 2.34472656 14.89226562 2.36132812 15.73828125 C2.36766733 23.73835945 0.49925017 29.93186188 -5 36 C-5.66 35.67 -6.32 35.34 -7 35 C-6.73445313 34.443125 -6.46890625 33.88625 -6.1953125 33.3125 C-5.84210938 32.549375 -5.48890625 31.78625 -5.125 31 C-4.77695312 30.2575 -4.42890625 29.515 -4.0703125 28.75 C-1.45070552 22.01933098 -0.65451624 15.65095711 -0.375 8.5 C-0.33632813 7.67757812 -0.29765625 6.85515625 -0.2578125 6.0078125 C-0.16468308 4.0055299 -0.08131015 2.00279738 0 0 Z " fill="#0F407E" transform="translate(295,192)"/>
<path d="M0 0 C0 4.08302665 -2.07338213 6.31585994 -4.375 9.5 C-5.19537011 10.65620913 -6.01568446 11.81245782 -6.8359375 12.96875 C-7.55007813 13.9690625 -8.26421875 14.969375 -9 16 C-9.66 16.99 -10.32 17.98 -11 19 C-11.66 19 -12.32 19 -13 19 C-13 19.66 -13 20.32 -13 21 C-13.66 21 -14.32 21 -15 21 C-15 21.66 -15 22.32 -15 23 C-15.66 23 -16.32 23 -17 23 C-17.33 23.66 -17.66 24.32 -18 25 C-18.33 23.68 -18.66 22.36 -19 21 C-18.34 21 -17.68 21 -17 21 C-16.67 20.34 -16.34 19.68 -16 19 C-15.34 19 -14.68 19 -14 19 C-14 17.68 -14 16.36 -14 15 C-13.34 15 -12.68 15 -12 15 C-11.67 13.68 -11.34 12.36 -11 11 C-10.34 11 -9.68 11 -9 11 C-9 10.34 -9 9.68 -9 9 C-8.01 9 -7.02 9 -6 9 C-6 8.01 -6 7.02 -6 6 C-5.34 6 -4.68 6 -4 6 C-4 4.68 -4 3.36 -4 2 C-2.68 1.34 -1.36 0.68 0 0 Z " fill="#0D397D" transform="translate(339,250)"/>
<path d="M0 0 C0.99 0.33 1.98 0.66 3 1 C2.21753906 1.69867188 1.43507812 2.39734375 0.62890625 3.1171875 C-0.39337172 4.0362998 -1.41549935 4.95557934 -2.4375 5.875 C-3.2119043 6.56529297 -3.2119043 6.56529297 -4.00195312 7.26953125 C-6.89487937 9.81793085 -6.89487937 9.81793085 -9 13 C-9.66 13 -10.32 13 -11 13 C-11.268125 13.598125 -11.53625 14.19625 -11.8125 14.8125 C-12.98493467 16.97224808 -14.19369282 18.35790256 -16 20 C-16.3125 17.8125 -16.3125 17.8125 -16 15 C-14.37660195 13.29115995 -12.70680947 11.62553283 -11 10 C-9.80972016 7.40084462 -9.80972016 7.40084462 -9 5 C-6.23776722 2.23776722 -3.79293383 2.42143709 0 2 C0 1.34 0 0.68 0 0 Z " fill="#0B3F81" transform="translate(192,131)"/>
<path d="M0 0 C1.1149585 -0.00855011 1.1149585 -0.00855011 2.25244141 -0.01727295 C3.82257671 -0.02670925 5.3927317 -0.03325149 6.96289062 -0.03710938 C9.36623423 -0.04683951 11.76873114 -0.07788417 14.171875 -0.109375 C15.69791159 -0.11590303 17.22395429 -0.12115429 18.75 -0.125 C19.46881348 -0.1373468 20.18762695 -0.1496936 20.92822266 -0.16241455 C25.92890518 -0.14004181 25.92890518 -0.14004181 28.3515625 1.72363281 C28.68929687 2.21186523 29.02703125 2.70009766 29.375 3.203125 C28.61058594 3.1309375 27.84617187 3.05875 27.05859375 2.984375 C14.08625464 1.86041782 1.33517374 1.97923001 -11.625 3.203125 C-9.49961119 -1.04765262 -4.17633101 0.02469194 0 0 Z " fill="#154888" transform="translate(241.625,110.796875)"/>
<path d="M0 0 C0.66 0.66 1.32 1.32 2 2 C-2.24094864 6.90359687 -6.59548372 9.56034774 -13.15234375 10.21484375 C-16.54907049 10.27177213 -19.76632025 10.07789325 -23 9 C-22 7 -22 7 -19 6 C-19 6.66 -19 7.32 -19 8 C-16.7058862 7.38304511 -14.41500322 6.75687956 -12.125 6.125 C-11.14853516 5.86396484 -11.14853516 5.86396484 -10.15234375 5.59765625 C-6.1931563 4.50470421 -6.1931563 4.50470421 -3 2 C-2.01 2 -1.02 2 0 2 C0 1.34 0 0.68 0 0 Z " fill="#BB6C5F" transform="translate(263,215)"/>
<path d="M0 0 C0.66 0.33 1.32 0.66 2 1 C-2.25807215 5.1300973 -7.99837917 5.33054045 -13.62109375 6.19726562 C-15.90254804 6.62480493 -17.88951196 7.03005151 -20 8 C-21.67949184 10.99288817 -21.67949184 10.99288817 -22 14 C-22.33 14 -22.66 14 -23 14 C-23 11.36 -23 8.72 -23 6 C-22.34 6 -21.68 6 -21 6 C-21 5.34 -21 4.68 -21 4 C-20.43490723 3.91435791 -19.86981445 3.82871582 -19.28759766 3.74047852 C-16.73285367 3.35130182 -14.17893253 2.95696515 -11.625 2.5625 C-10.73554688 2.42779297 -9.84609375 2.29308594 -8.9296875 2.15429688 C-7.65351563 1.95610352 -7.65351563 1.95610352 -6.3515625 1.75390625 C-5.17327881 1.57323608 -5.17327881 1.57323608 -3.97119141 1.38891602 C-1.93388316 1.07761762 -1.93388316 1.07761762 0 0 Z " fill="#113971" transform="translate(267,244)"/>
<path d="M0 0 C0.99 0.33 1.98 0.66 3 1 C2.01 1.495 2.01 1.495 1 2 C1 2.66 1 3.32 1 4 C0.34 4 -0.32 4 -1 4 C-1 4.66 -1 5.32 -1 6 C-2.64453125 7.54296875 -2.64453125 7.54296875 -4.8125 9.1875 C-5.52019531 9.73792969 -6.22789062 10.28835938 -6.95703125 10.85546875 C-7.63121094 11.23316406 -8.30539062 11.61085938 -9 12 C-9.99 11.67 -10.98 11.34 -12 11 C-11.34 10.67 -10.68 10.34 -10 10 C-10 9.01 -10 8.02 -10 7 C-10.66 7 -11.32 7 -12 7 C-11.67 6.01 -11.34 5.02 -11 4 C-8.4375 2.8125 -8.4375 2.8125 -6 2 C-6 2.99 -6 3.98 -6 5 C-5.34 5 -4.68 5 -4 5 C-4 4.34 -4 3.68 -4 3 C-2.68 3 -1.36 3 0 3 C0 2.01 0 1.02 0 0 Z " fill="#073F8D" transform="translate(317,275)"/>
<path d="M0 0 C2.125 0.9375 2.125 0.9375 4 2 C-1.66561692 8.25003586 -7.74080531 12.72988548 -15 17 C-15.66 16.01 -16.32 15.02 -17 14 C-15.35 14 -13.7 14 -12 14 C-12 13.34 -12 12.68 -12 12 C-10.1875 9.875 -10.1875 9.875 -8 8 C-7.01 8 -6.02 8 -5 8 C-5 7.34 -5 6.68 -5 6 C-4.34 5.67 -3.68 5.34 -3 5 C-2.835 4.34 -2.67 3.68 -2.5 3 C-2.335 2.34 -2.17 1.68 -2 1 C-1.34 0.67 -0.68 0.34 0 0 Z " fill="#0E3D7D" transform="translate(291,239)"/>
<path d="M0 0 C1.27230469 0.01804688 2.54460937 0.03609375 3.85546875 0.0546875 C5.31919922 0.08949219 5.31919922 0.08949219 6.8125 0.125 C6.8125 4.125 6.8125 4.125 5.8125 6.125 C4.14583333 6.125 2.47916667 6.125 0.8125 6.125 C0.4825 5.465 0.1525 4.805 -0.1875 4.125 C-2.51245277 3.73750787 -4.8474583 3.40741883 -7.1875 3.125 C-8.1775 2.795 -9.1675 2.465 -10.1875 2.125 C-6.4507157 -0.36618953 -4.44298181 -0.0815226 0 0 Z " fill="#B97769" transform="translate(248.1875,183.875)"/>
<path d="M0 0 C1 2 1 2 0.125 5 C-1 8 -1 8 -2 10 C-6.44320697 11.91865756 -11.22628119 13.23004535 -16 14 C-15 12 -15 12 -11.9375 10.375 C-7.1594204 7.77778661 -3.68179156 3.93999512 0 0 Z " fill="#0E3F7B" transform="translate(286,230)"/>
<path d="M0 0 C2.475 0.495 2.475 0.495 5 1 C5 1.66 5 2.32 5 3 C6.32 3 7.64 3 9 3 C9.33 5.31 9.66 7.62 10 10 C10.99 10 11.98 10 13 10 C13.99 12.31 14.98 14.62 16 17 C15.01 17 14.02 17 13 17 C11.38671875 15.05859375 11.38671875 15.05859375 9.6875 12.4375 C6.71372105 7.98948596 3.55778523 3.99166148 0 0 Z " fill="#0C3D76" transform="translate(311,136)"/>
<path d="M0 0 C0.763125 0.309375 1.52625 0.61875 2.3125 0.9375 C4.18789677 1.67893593 6.08684652 2.36228217 8 3 C9.16958222 4.13616559 10.33415684 5.27840486 11.4609375 6.45703125 C14.47686661 9.480615 17.7652703 12.21476128 21 15 C20.01 15.495 20.01 15.495 19 16 C16.96166576 14.7260411 14.96147874 13.38938077 13 12 C13 11.34 13 10.68 13 10 C11.68 9.67 10.36 9.34 9 9 C9 8.34 9 7.68 9 7 C8.443125 6.731875 7.88625 6.46375 7.3125 6.1875 C4.78774666 4.89100504 2.36285516 3.57523677 0 2 C0 1.34 0 0.68 0 0 Z " fill="#124076" transform="translate(300,114)"/>
<path d="M0 0 C3.92055013 7.59606588 4.81161588 15.61821109 6 24 C6.11472656 24.79019531 6.22945312 25.58039063 6.34765625 26.39453125 C6.56955216 27.92905089 6.78572981 29.46439699 7 31 C3.08364525 25.12546787 1.71944931 18.72387628 1.2109375 11.75 C1.17952591 9.97372383 1.17952591 9.97372383 0 9 C-0.07179964 7.48071962 -0.08392007 5.95832518 -0.0625 4.4375 C-0.05347656 3.61121094 -0.04445312 2.78492188 -0.03515625 1.93359375 C-0.02355469 1.29550781 -0.01195312 0.65742188 0 0 Z " fill="#0C3469" transform="translate(149,209)"/>
<path d="M0 0 C0.33 0.99 0.66 1.98 1 3 C-3.34533736 7.47314141 -7.79176965 11.52784643 -13 15 C-15.1875 14.625 -15.1875 14.625 -17 14 C-16.10796875 13.32453125 -15.2159375 12.6490625 -14.296875 11.953125 C-13.11446376 11.05224025 -11.93217876 10.1511898 -10.75 9.25 C-10.16347656 8.8065625 -9.57695312 8.363125 -8.97265625 7.90625 C-5.75622151 5.4487493 -2.78757406 2.95317252 0 0 Z " fill="#123D76" transform="translate(316,263)"/>
<path d="M0 0 C0.99 0 1.98 0 3 0 C6.48494763 4.79180299 9 10.06218139 9 16 C9.66 16 10.32 16 11 16 C11 18.64 11 21.28 11 24 C9.1478946 21.2218419 8.24502221 19.06506569 7.1875 15.9375 C5.22308662 10.3778395 2.75551589 5.20611814 0 0 Z " fill="#0C3D75" transform="translate(326,155)"/>
<path d="M0 0 C2.91316254 1.45658127 3.09207774 3.36160014 4.1875 6.375 C4.55230469 7.35210937 4.91710937 8.32921875 5.29296875 9.3359375 C6 12 6 12 5 15 C3.02 13.68 1.04 12.36 -1 11 C-0.67 7.37 -0.34 3.74 0 0 Z " fill="#094288" transform="translate(163,227)"/>
<path d="M0 0 C1.32 0.33 2.64 0.66 4 1 C3.34 1.66 2.68 2.32 2 3 C1.01 3 0.02 3 -1 3 C-1.10957031 3.69867188 -1.21914062 4.39734375 -1.33203125 5.1171875 C-1.49058594 6.02726563 -1.64914063 6.93734375 -1.8125 7.875 C-1.96332031 8.77992188 -2.11414063 9.68484375 -2.26953125 10.6171875 C-3 13 -3 13 -6 15 C-7.26426661 11.20720018 -6.40145184 9.65934648 -5 6 C-4.67 5.34 -4.34 4.68 -4 4 C-3.34 4 -2.68 4 -2 4 C-2 3.34 -2 2.68 -2 2 C-1.34 2 -0.68 2 0 2 C0 1.34 0 0.68 0 0 Z " fill="#B07065" transform="translate(235,188)"/>
<path d="M0 0 C0.33 1.32 0.66 2.64 1 4 C0.071875 4.12375 0.071875 4.12375 -0.875 4.25 C-3.15354435 4.79278299 -3.15354435 4.79278299 -4.0625 6.875 C-4.371875 7.57625 -4.68125 8.2775 -5 9 C-6 10 -7 11 -8 12 C-8.33 12.99 -8.66 13.98 -9 15 C-11.5625 16.1875 -11.5625 16.1875 -14 17 C-12.59168351 12.51899299 -10.41176733 10.17373705 -7 7 C-6.113125 6.113125 -5.22625 5.22625 -4.3125 4.3125 C-2.875 2.875 -1.4375 1.4375 0 0 Z " fill="#113C74" transform="translate(215,155)"/>
<path d="M0 0 C-1.58941406 0.63228516 -1.58941406 0.63228516 -3.2109375 1.27734375 C-4.59897649 1.83068362 -5.98699633 2.38407153 -7.375 2.9375 C-8.42300781 3.35418945 -8.42300781 3.35418945 -9.4921875 3.77929688 C-13.29232246 5.28466196 -13.29232246 5.28466196 -17 7 C-18.67654729 6.72057545 -20.34608154 6.39171753 -22 6 C-18.6164619 3.05632185 -15.28626102 1.96686224 -11 0.75 C-9.783125 0.39421875 -8.56625 0.0384375 -7.3125 -0.328125 C-4.28420082 -0.94235549 -2.82045625 -1.09997794 0 0 Z " fill="#0A2B5B" transform="translate(232,103)"/>
<path d="M0 0 C-0.84498047 0.39832031 -0.84498047 0.39832031 -1.70703125 0.8046875 C-4.16861628 2.08789878 -6.39720948 3.55775988 -8.6875 5.125 C-12.88995215 8 -12.88995215 8 -14 8 C-14.3125 5.6875 -14.3125 5.6875 -14 3 C-9.89965696 -0.83580478 -5.26508245 -0.30971073 0 0 Z " fill="#093D86" transform="translate(233,161)"/>
<path d="M0 0 C-3.36448118 1.77250716 -6.82454255 3.14271557 -10.375 4.5 C-12.02628906 5.13421875 -12.02628906 5.13421875 -13.7109375 5.78125 C-16.7883308 6.92156676 -19.88025799 7.98207814 -23 9 C-22.67 8.01 -22.34 7.02 -22 6 C-20.68 6 -19.36 6 -18 6 C-17.67 5.01 -17.34 4.02 -17 3 C-11.60639141 0.22614415 -5.97403116 -0.14223884 0 0 Z " fill="#0D3A75" transform="translate(230,114)"/>
<path d="M0 0 C2 1 2 1 2.6328125 2.84765625 C3.08854167 4.8984375 3.54427083 6.94921875 4 9 C7.63 9.33 11.26 9.66 15 10 C15 10.33 15 10.66 15 11 C12.70858714 11.05384521 10.41681812 11.09272087 8.125 11.125 C6.21074219 11.15980469 6.21074219 11.15980469 4.2578125 11.1953125 C1 11 1 11 -1 9 C-1.33870968 2.67741935 -1.33870968 2.67741935 0 0 Z " fill="#1B4F88" transform="translate(243,293)"/>
<path d="M0 0 C0.66 0.99 1.32 1.98 2 3 C1.360625 3.185625 0.72125 3.37125 0.0625 3.5625 C-0.618125 4.036875 -1.29875 4.51125 -2 5 C-2.165 6.155 -2.33 7.31 -2.5 8.5 C-2.665 9.655 -2.83 10.81 -3 12 C-4.875 13.375 -4.875 13.375 -7 14 C-7.99 14.33 -8.98 14.66 -10 15 C-8.37815499 11.41486894 -6.20743761 8.41007677 -3.875 5.25 C-3.15054687 4.26515625 -2.42609375 3.2803125 -1.6796875 2.265625 C-1.12539063 1.51796875 -0.57109375 0.7703125 0 0 Z " fill="#103E78" transform="translate(327,248)"/>
<path d="M0 0 C0.33 0 0.66 0 1 0 C0.31702242 8.33232646 -0.4787993 17.38381256 -6 24 C-6.19953041 19.71009608 -5.66617076 16.92040178 -4 13 C-3.7525 11.453125 -3.7525 11.453125 -3.5 9.875 C-3 7 -3 7 -1 4 C-0.36707617 1.88719655 -0.36707617 1.88719655 0 0 Z " fill="#12417A" transform="translate(349,219)"/>
<path d="M0 0 C2 1.8125 2 1.8125 4 4 C4 4.99 4 5.98 4 7 C4.66 7 5.32 7 6 7 C7.2890625 8.4609375 7.2890625 8.4609375 8.625 10.375 C9.07101563 11.00148438 9.51703125 11.62796875 9.9765625 12.2734375 C11 14 11 14 11 16 C11.66 16 12.32 16 13 16 C12.67 16.66 12.34 17.32 12 18 C11.34 17.67 10.68 17.34 10 17 C10 16.34 10 15.68 10 15 C9.34 15 8.68 15 8 15 C4.98295115 11.8000997 3.50109958 9.38462134 3 5 C2.01 5 1.02 5 0 5 C0 3.35 0 1.7 0 0 Z " fill="#13386D" transform="translate(172,247)"/>
<path d="M0 0 C0.33 0 0.66 0 1 0 C1 5.94 1 11.88 1 18 C-0.32 18 -1.64 18 -3 18 C-3 17.34 -3 16.68 -3 16 C-4.32 16 -5.64 16 -7 16 C-7 15.01 -7 14.02 -7 13 C-7.66 12.67 -8.32 12.34 -9 12 C-8.01 12 -7.02 12 -6 12 C-6 12.99 -6 13.98 -6 15 C-4.35 14.34 -2.7 13.68 -1 13 C-0.67 8.71 -0.34 4.42 0 0 Z " fill="#0B489B" transform="translate(203,272)"/>
<path d="M0 0 C0.33 0 0.66 0 1 0 C1.86140345 11.82994076 1.86140345 11.82994076 -1.5 15.75 C-2.325 16.4925 -3.15 17.235 -4 18 C-4.66 17.67 -5.32 17.34 -6 17 C-5.73445313 16.443125 -5.46890625 15.88625 -5.1953125 15.3125 C-2.85230982 10.25024604 -1.18900374 5.44960046 0 0 Z " fill="#0A356E" transform="translate(294,210)"/>
<path d="M0 0 C0.99 0.33 1.98 0.66 3 1 C1.05175031 6.84474908 -1.23857955 11.12031942 -5 16 C-5.61328125 14.1796875 -5.61328125 14.1796875 -6 12 C-4.71810412 9.96664791 -3.37843192 7.96918846 -2 6 C-0.75675853 2.7750792 -0.75675853 2.7750792 0 0 Z " fill="#0C3669" transform="translate(301,224)"/>
<path d="M0 0 C0 3.83764027 -1.26535335 5.11486085 -3.5 8.1875 C-4.1496875 9.08855469 -4.799375 9.98960937 -5.46875 10.91796875 C-5.9740625 11.60503906 -6.479375 12.29210937 -7 13 C-7.66 11.68 -8.32 10.36 -9 9 C-8.01 9 -7.02 9 -6 9 C-6 8.01 -6 7.02 -6 6 C-5.34 6 -4.68 6 -4 6 C-4 4.68 -4 3.36 -4 2 C-2.68 1.34 -1.36 0.68 0 0 Z " fill="#0B3670" transform="translate(339,250)"/>
<path d="M0 0 C4.29926263 1.59231949 6.35005733 4.39313359 9 8 C9 8.99 9 9.98 9 11 C8.01 11 7.02 11 6 11 C5.979375 10.236875 5.95875 9.47375 5.9375 8.6875 C5.20339051 5.58610882 5.20339051 5.58610882 1.4375 4.1875 C0.303125 3.795625 -0.83125 3.40375 -2 3 C-1.34 2.01 -0.68 1.02 0 0 Z " fill="#C68073" transform="translate(258,187)"/>
<path d="M0 0 C5.30574727 3.33504114 7.89020661 8.23323139 10 14 C9.67 14.66 9.34 15.32 9 16 C8.34 15.67 7.68 15.34 7 15 C6.59270772 12.67843403 6.25561323 10.3431213 6 8 C5.34 8 4.68 8 4 8 C4 7.34 4 6.68 4 6 C3.01 6 2.02 6 1 6 C0.67 4.02 0.34 2.04 0 0 Z " fill="#0C366A" transform="translate(294,165)"/>
<path d="M0 0 C1 2 1 2 0.546875 3.953125 C-1.02464423 8.48279807 -2.71944321 12.76468024 -5 17 C-6.34581972 12.96254085 -5.19157055 11.27844375 -3.625 7.375 C-3.16351563 6.20710937 -2.70203125 5.03921875 -2.2265625 3.8359375 C-1 1 -1 1 0 0 Z " fill="#0C2F61" transform="translate(200,172)"/>
<path d="M0 0 C0.33 0 0.66 0 1 0 C0.88557539 1.60495567 0.75805306 3.20898119 0.625 4.8125 C0.55539063 5.70582031 0.48578125 6.59914062 0.4140625 7.51953125 C0 10 0 10 -2 13 C-2.99 13 -3.98 13 -5 13 C-3.78184562 8.31479085 -2.30440013 4.29456388 0 0 Z " fill="#0B376A" transform="translate(161,151)"/>
<path d="M0 0 C0.99 0 1.98 0 3 0 C3.70133599 1.57725347 4.385583 3.16211333 5.0625 4.75 C5.44535156 5.63171875 5.82820312 6.5134375 6.22265625 7.421875 C7.04600008 10.15256309 6.9773992 11.36901347 6 14 C4.99515796 12.04414675 3.99626195 10.08523763 3 8.125 C2.1646875 6.48917969 2.1646875 6.48917969 1.3125 4.8203125 C0 2 0 2 0 0 Z " fill="#0C3770" transform="translate(156,240)"/>
<path d="M0 0 C-0.66 1.65 -1.32 3.3 -2 5 C-2.66 5 -3.32 5 -4 5 C-4.66 6.32 -5.32 7.64 -6 9 C-7.32 8.67 -8.64 8.34 -10 8 C-8.71451591 6.66070495 -7.42141845 5.32871357 -6.125 4 C-5.04605469 2.88625 -5.04605469 2.88625 -3.9453125 1.75 C-2 0 -2 0 0 0 Z " fill="#10336E" transform="translate(187,123)"/>
<path d="M0 0 C2.30153291 2.30153291 2.7577028 3.84875905 3.6875 6.9375 C3.95949219 7.81277344 4.23148437 8.68804687 4.51171875 9.58984375 C5 12 5 12 4 15 C1.99442596 11.99163894 1.07140986 9.42851156 0 6 C-0.33 5.01 -0.66 4.02 -1 3 C-0.67 2.01 -0.34 1.02 0 0 Z " fill="#0D3B73" transform="translate(343,162)"/>
<path d="M0 0 C0 0.33 0 0.66 0 1 C-1.95603851 1.52938657 -3.91492289 2.04826801 -5.875 2.5625 C-6.96554687 2.85253906 -8.05609375 3.14257812 -9.1796875 3.44140625 C-12 4 -12 4 -14 3 C-14 2.34 -14 1.68 -14 1 C-9.32798795 -0.20568053 -4.78503708 -0.09382426 0 0 Z " fill="#0E3768" transform="translate(286,298)"/>
<path d="M0 0 C1 2 1 2 0.0625 5.125 C-0.288125 6.07375 -0.63875 7.0225 -1 8 C-1.99 8 -2.98 8 -4 8 C-4.66 7.34 -5.32 6.68 -6 6 C-4.02 4.02 -2.04 2.04 0 0 Z " fill="#093D86" transform="translate(286,230)"/>
<path d="M0 0 C0.33 0 0.66 0 1 0 C1.05416188 1.60379341 1.09286638 3.20811406 1.125 4.8125 C1.14820313 5.70582031 1.17140625 6.59914062 1.1953125 7.51953125 C1 10 1 10 -1 13 C-1.33 12.67 -1.66 12.34 -2 12 C-1.93607199 10.16352258 -1.79944271 8.32929108 -1.625 6.5 C-1.53476563 5.4996875 -1.44453125 4.499375 -1.3515625 3.46875 C-1 1 -1 1 0 0 Z " fill="#0C3775" transform="translate(152,175)"/>
<path d="M0 0 C6.76923077 3.44615385 6.76923077 3.44615385 7.9375 6.25 C7.958125 6.8275 7.97875 7.405 8 8 C5.6875 7.8125 5.6875 7.8125 3 7 C0 2.96551724 0 2.96551724 0 0 Z " fill="#0D3E7C" transform="translate(286,157)"/>
<path d="M0 0 C0.66 0.33 1.32 0.66 2 1 C1.4375 2.8125 1.4375 2.8125 0 5 C-3.5 6.8125 -3.5 6.8125 -7 8 C-7.66 7.67 -8.32 7.34 -9 7 C-6.03 4.69 -3.06 2.38 0 0 Z " fill="#0F3972" transform="translate(196,115)"/>
<path d="M0 0 C-4.65492322 3.56877447 -9.34849564 3.68175995 -15 4 C-14 2 -14 2 -11.85546875 1.11328125 C-10.97503906 0.84902344 -10.09460938 0.58476562 -9.1875 0.3125 C-8.31480469 0.04050781 -7.44210937 -0.23148437 -6.54296875 -0.51171875 C-3.93126166 -1.01319861 -2.48283616 -0.86233704 0 0 Z " fill="#15427C" transform="translate(275,290)"/>
<path d="M0 0 C-0.33 0.99 -0.66 1.98 -1 3 C-6.07320858 5.03581546 -11.60499453 5.2295747 -17 5 C-17 4.67 -17 4.34 -17 4 C-13.7 3.67 -10.4 3.34 -7 3 C-7 2.34 -7 1.68 -7 1 C-2.25 0 -2.25 0 0 0 Z " fill="#123A6C" transform="translate(274,255)"/>
<path d="M0 0 C0 0.99 0 1.98 0 3 C-1.55575978 3.84584998 -3.1199612 4.67618399 -4.6875 5.5 C-5.99267578 6.19609375 -5.99267578 6.19609375 -7.32421875 6.90625 C-10.11788829 8.04818792 -12.01629113 8.21504208 -15 8 C-14.484375 7.7525 -13.96875 7.505 -13.4375 7.25 C-11.42004002 6.21540514 -9.46332273 5.13154944 -7.5 4 C-5.03684185 2.58037337 -2.56447147 1.23094631 0 0 Z " fill="#0E4C9B" transform="translate(276,241)"/>
<path d="M0 0 C4.61513112 1.31860889 8.09897612 3.21355437 12 6 C11.34 6.66 10.68 7.32 10 8 C9.34 7.67 8.68 7.34 8 7 C8 6.34 8 5.68 8 5 C6.8553125 4.814375 6.8553125 4.814375 5.6875 4.625 C3 4 3 4 0 2 C0 1.34 0 0.68 0 0 Z " fill="#123E75" transform="translate(274,150)"/>
<path d="M0 0 C-5.94 3.465 -5.94 3.465 -12 7 C-12 6.01 -12 5.02 -12 4 C-11.01 3.67 -10.02 3.34 -9 3 C-8.34 2.01 -7.68 1.02 -7 0 C-4 -1 -4 -1 0 0 Z " fill="#0F386D" transform="translate(207,124)"/>
<path d="M0 0 C-2.85021875 2.32240046 -5.46355091 3.93906527 -9 5 C-11.15625 4.546875 -11.15625 4.546875 -13 4 C-11.40233897 3.13372601 -9.79660056 2.28233535 -8.1875 1.4375 C-7.29417969 0.96183594 -6.40085938 0.48617187 -5.48046875 -0.00390625 C-3 -1 -3 -1 0 0 Z " fill="#0E3C6C" transform="translate(211,110)"/>
<path d="M0 0 C3.37830553 1.44784523 5.64961028 3.16332276 8 6 C8.75 8.75 8.75 8.75 9 11 C7.62437146 9.71034824 6.29233607 8.37310707 5 7 C5 6.34 5 5.68 5 5 C4.34 5 3.68 5 3 5 C3 4.34 3 3.68 3 3 C2.01 3 1.02 3 0 3 C0 2.01 0 1.02 0 0 Z " fill="#0E366A" transform="translate(278,165)"/>
<path d="M0 0 C1 3 1 3 -0.1875 6.0625 C-1.99216457 8.9873012 -2.82880497 9.90648447 -6 11 C-4.54955729 6.89041233 -2.48889248 3.56741255 0 0 Z " fill="#0F3B73" transform="translate(169,140)"/>
<path d="M0 0 C3.39417765 3.12621626 5.6062718 5.56541027 7 10 C4.0625 8.9375 4.0625 8.9375 1 7 C0.125 3.3125 0.125 3.3125 0 0 Z " fill="#0C3975" transform="translate(327,136)"/>
<path d="M0 0 C1.32 0.33 2.64 0.66 4 1 C1.69 3.97 -0.62 6.94 -3 10 C-3.33 8.68 -3.66 7.36 -4 6 C-3.01 5.67 -2.02 5.34 -1 5 C-0.67 3.35 -0.34 1.7 0 0 Z " fill="#0C2C61" transform="translate(214,171)"/>
<path d="M0 0 C0.33 1.32 0.66 2.64 1 4 C-0.98 5.32 -2.96 6.64 -5 8 C-5 5 -5 5 -2.5 2.3125 C-1.675 1.549375 -0.85 0.78625 0 0 Z " fill="#0E3266" transform="translate(176,132)"/>
<path d="M0 0 C3.40312738 1.05875074 6.01353231 2.00902154 9 4 C9.6875 6.125 9.6875 6.125 10 8 C8.0625 7.1875 8.0625 7.1875 6 6 C5.67 5.01 5.34 4.02 5 3 C3.67696283 2.6278958 2.34262065 2.29369827 1 2 C0.67 1.34 0.34 0.68 0 0 Z " fill="#082755" transform="translate(301,128)"/>
<path d="M0 0 C-2.125 2.0625 -2.125 2.0625 -5 4 C-8.3125 3.75 -8.3125 3.75 -11 3 C-7.48550811 -0.37391222 -4.73940561 -0.27342725 0 0 Z " fill="#0B3F7B" transform="translate(221,106)"/>
<path d="M0 0 C1.32 0 2.64 0 4 0 C4.268125 0.763125 4.53625 1.52625 4.8125 2.3125 C5.94424112 4.87380884 6.91223401 6.19692938 9 8 C8.67 8.66 8.34 9.32 8 10 C6.66370254 8.52351062 5.33103329 7.0437367 4 5.5625 C3.2575 4.73878906 2.515 3.91507812 1.75 3.06640625 C0 1 0 1 0 0 Z " fill="#0B386A" transform="translate(168,262)"/>
<path d="M0 0 C0.99 0 1.98 0 3 0 C5.60250805 3.37362154 6.36265043 5.76907828 6 10 C3.25722422 6.80009492 1.3697164 3.99500618 0 0 Z " fill="#0A356B" transform="translate(326,155)"/>
<path d="M0 0 C0.33 0.99 0.66 1.98 1 3 C-0.4375 5.1875 -0.4375 5.1875 -2 7 C-3.32 6.67 -4.64 6.34 -6 6 C-4.02 4.02 -2.04 2.04 0 0 Z " fill="#0B366F" transform="translate(316,263)"/>
<path d="M0 0 C0.66 0.66 1.32 1.32 2 2 C0.37660195 3.70884005 -1.29319053 5.37446717 -3 7 C-3.66 7 -4.32 7 -5 7 C-4.67 5.68 -4.34 4.36 -4 3 C-2.68 2.67 -1.36 2.34 0 2 C0 1.34 0 0.68 0 0 Z " fill="#B27668" transform="translate(263,215)"/>
<path d="M0 0 C5.41538462 -0.36923077 5.41538462 -0.36923077 8.375 1.5 C8.91125 1.995 9.4475 2.49 10 3 C3.375 3.125 3.375 3.125 0 2 C0 1.34 0 0.68 0 0 Z " fill="#0D3A77" transform="translate(264,147)"/>
<path d="M0 0 C1.32 1.32 2.64 2.64 4 4 C2.906875 3.95875 1.81375 3.9175 0.6875 3.875 C-3.08892229 3.67925334 -3.08892229 3.67925334 -6 6 C-5.34 4.68 -4.68 3.36 -4 2 C-2.68 2 -1.36 2 0 2 C0 1.34 0 0.68 0 0 Z " fill="#083772" transform="translate(186,265)"/>
<path d="M0 0 C0.66 0 1.32 0 2 0 C0.66511872 3.59391114 -0.96022723 6.75490696 -3 10 C-4 7 -4 7 -3.22265625 5.17578125 C-2.1484375 3.45052083 -1.07421875 1.72526042 0 0 Z " fill="#0F396C" transform="translate(174,151)"/>
<path d="M0 0 C0.80824219 0.10183594 1.61648437 0.20367187 2.44921875 0.30859375 C3.06410156 0.39238281 3.67898437 0.47617188 4.3125 0.5625 C4.3125 0.8925 4.3125 1.2225 4.3125 1.5625 C-2.1225 2.0575 -2.1225 2.0575 -8.6875 2.5625 C-6.80760684 -1.19728632 -3.63897564 -0.474649 0 0 Z " fill="#123C6C" transform="translate(238.6875,111.4375)"/>
<path d="M0 0 C0.66 0.33 1.32 0.66 2 1 C2 2.98 2 4.96 2 7 C1.34 7 0.68 7 0 7 C-0.33 7.66 -0.66 8.32 -1 9 C-1.125 2.25 -1.125 2.25 0 0 Z " fill="#0D3163" transform="translate(243,293)"/>
<path d="M0 0 C0.99 0.33 1.98 0.66 3 1 C2.01 1.495 2.01 1.495 1 2 C1 2.66 1 3.32 1 4 C0.34 4 -0.32 4 -1 4 C-1 4.66 -1 5.32 -1 6 C-1.99 6.33 -2.98 6.66 -4 7 C-4 5.68 -4 4.36 -4 3 C-2.68 3 -1.36 3 0 3 C0 2.01 0 1.02 0 0 Z " fill="#103868" transform="translate(317,275)"/>
<path d="M0 0 C2 1.8125 2 1.8125 4 4 C4 4.99 4 5.98 4 7 C4.66 7 5.32 7 6 7 C5.67 7.66 5.34 8.32 5 9 C4.34 8.67 3.68 8.34 3 8 C3 7.01 3 6.02 3 5 C2.01 5 1.02 5 0 5 C0 3.35 0 1.7 0 0 Z " fill="#0D3563" transform="translate(172,247)"/>
<path d="M0 0 C0.99 0.33 1.98 0.66 3 1 C2.67 1.99 2.34 2.98 2 4 C2.66 4.33 3.32 4.66 4 5 C2.35 5 0.7 5 -1 5 C-1.33 4.01 -1.66 3.02 -2 2 C-1.34 1.34 -0.68 0.68 0 0 Z " fill="#EE8875" transform="translate(245,218)"/>
<path d="M0 0 C0 0.66 0 1.32 0 2 C-2.70879335 3.35439668 -5.00933268 3.06501451 -8 3 C-5.53387212 -0.1151089 -3.89156016 -0.31553191 0 0 Z " fill="#104B8D" transform="translate(289,295)"/>
<path d="M0 0 C0.99 0.33 1.98 0.66 3 1 C2.34 2.98 1.68 4.96 1 7 C0.01 6.67 -0.98 6.34 -2 6 C-1.34 4.02 -0.68 2.04 0 0 Z " fill="#0B3E7A" transform="translate(301,224)"/>
<path d="M0 0 C-1.29299694 2.88437779 -2.65941363 4.87219421 -5 7 C-5.1875 4.625 -5.1875 4.625 -5 2 C-2 0 -2 0 0 0 Z " fill="#0F3975" transform="translate(181,144)"/>
</svg>
